<svg version="1.1" id="Layer_1" xmlns="http://www.w3.org/2000/svg" xmlns:xlink="http://www.w3.org/1999/xlink" x="0px" y="0px"
	 width="100%" viewBox="0 0 3464 866" enable-background="new 0 0 3464 866" xml:space="preserve">
	<path xmlns="http://www.w3.org/2000/svg" fill="#FFFFFF" opacity="1.000000" stroke="none" d=" M351.000000,811.000000   C261.197998,811.000000 171.895966,811.000000 82.297050,811.000000   C82.297050,804.391541 82.297050,797.972961 82.297050,791.542236   C113.665024,776.465881 145.132034,761.341919 176.879730,746.083069   C176.879730,541.934570 176.879730,337.314392 176.879730,132.595093   C167.006104,127.639137 157.156662,122.558052 147.185913,117.727333   C136.128510,112.370125 124.968567,107.223991 113.837975,102.018646   C103.706230,97.280426 93.527885,92.640060 83.458824,87.772957   C82.625214,87.370018 82.093697,85.572052 82.064308,84.406067   C81.922340,78.774071 82.000351,73.136528 82.000351,67.000000   C83.886971,67.000000 85.494408,67.000000 87.101837,67.000000   C210.085617,67.000000 333.069611,66.886276 456.052917,67.133415   C472.803497,67.167076 489.653687,68.169312 506.272125,70.224243   C525.666077,72.622368 544.960754,76.169235 564.099487,80.169868   C577.715454,83.016060 591.341675,86.527596 604.350708,91.383492   C620.905212,97.562805 637.274841,104.400711 652.445679,113.807976   C666.605042,122.588074 679.673523,132.642181 691.113647,144.706924   C699.845398,153.915436 706.819946,164.322678 712.121887,175.989426   C720.447205,194.309052 723.936768,213.336334 724.237183,233.428848   C724.472473,249.170975 722.358704,264.477173 717.660034,279.150848   C712.127136,296.429596 703.616882,312.516998 692.483459,327.085907   C683.460205,338.893524 673.819214,350.255127 662.009644,359.175568   C650.238708,368.066833 637.650024,376.002838 624.843628,383.353851   C615.469482,388.734772 605.337097,392.942230 595.224365,396.849030   C584.516235,400.985779 573.431641,404.148102 562.237244,407.826141   C570.222778,409.229736 578.148010,410.382996 585.961670,412.057007   C595.665955,414.136169 605.305725,416.537292 614.922485,418.998383   C626.231201,421.892487 637.709473,424.357697 648.700867,428.193359   C659.969421,432.125763 670.846802,437.256989 681.690186,442.304230   C689.634216,446.001892 697.518494,449.974213 704.951843,454.592865   C721.842285,465.087646 737.597961,477.000610 751.096863,491.848389   C759.739136,501.354248 767.304749,511.432648 773.370667,522.744690   C780.379333,535.814636 785.033752,549.616028 788.080688,564.116028   C791.742859,581.543945 790.283447,599.152222 789.582581,616.564331   C789.139771,627.565063 785.186279,638.574036 781.795227,649.257996   C779.209778,657.403748 775.330566,665.192566 771.502075,672.878723   C764.161682,687.615967 754.377930,700.740540 742.883057,712.437500   C733.867249,721.611816 724.772766,730.949707 714.504456,738.590576   C701.920288,747.954712 688.271606,755.958679 674.709473,763.913696   C665.506470,769.311951 655.900879,774.197876 646.040283,778.255859   C634.266113,783.101440 622.129272,787.145630 609.960754,790.929749   C598.485168,794.498352 586.868103,797.765076 575.122314,800.268494   C563.434875,802.759399 551.547852,804.438599 539.679626,805.925415   C523.979919,807.892212 508.214386,809.335266 492.473724,810.970703   C491.154449,811.107727 489.809357,810.999573 488.476257,810.999573   C442.817505,811.000183 397.158752,811.000000 351.000000,811.000000  M606.003052,565.405945   C604.283936,555.439819 601.400879,545.917603 597.427063,536.525635   C592.553284,525.006287 586.146851,514.555542 577.801514,505.542084   C566.287537,493.106232 552.514893,483.382996 536.938416,476.521423   C528.332031,472.730225 519.693542,468.728973 510.680817,466.217224   C500.319122,463.329651 489.586212,461.565308 478.908112,460.075806   C466.144440,458.295380 453.285675,456.434692 440.436981,456.180206   C411.457855,455.606293 382.459534,455.996643 353.469025,456.009979   C352.036102,456.010651 350.603271,456.156952 349.270203,456.229950   C349.270203,553.315186 349.270203,650.031372 349.270203,747.000000   C351.173370,747.000000 352.815582,747.000000 354.457764,747.000000   C383.948090,747.000000 413.445496,746.621216 442.925598,747.170349   C456.338959,747.420166 469.610504,746.377502 482.542603,743.715210   C496.439301,740.854370 510.383301,737.001221 523.398254,731.450928   C534.616333,726.666870 544.909058,719.390625 554.988831,712.328491   C574.398987,698.728943 588.086365,680.316956 597.711731,658.766235   C604.436035,643.710632 608.005676,627.816223 608.814026,611.500366   C609.418579,599.298889 608.436096,587.009033 607.918030,574.768799   C607.797546,571.921265 606.693054,569.115295 606.003052,565.405945  M513.037842,169.367599   C504.782227,160.712387 494.754608,154.749496 484.103638,149.476425   C471.418304,143.196182 458.230133,138.474396 444.358215,136.126266   C431.055695,133.874527 417.614807,131.821945 404.165131,131.209152   C385.928741,130.378281 367.626038,131.002380 349.360657,131.002380   C349.360657,220.602066 349.360657,309.765411 349.360657,398.000122   C371.131744,398.000122 392.558105,398.546051 413.937225,397.777435   C425.182159,397.373169 436.424103,395.077728 447.524719,392.906647   C462.836792,389.911896 477.125641,384.190704 490.639496,376.160309   C506.981506,366.449341 520.744202,354.062622 530.850403,338.136993   C543.308167,318.505707 549.829651,296.912750 549.046509,273.367126   C548.758667,264.713654 549.418762,256.015930 548.869385,247.387878   C548.418152,240.300980 547.635925,233.031403 545.533630,226.300995   C542.358032,216.134735 538.422852,206.122009 533.855591,196.497162   C529.022400,186.311981 522.382812,177.191360 513.037842,169.367599  z"/>
	<path xmlns="http://www.w3.org/2000/svg" fill="#FFFFFF" opacity="1.000000" stroke="none" d=" M1135.186646,358.000000   C1146.665894,358.000000 1157.692627,357.492737 1168.652954,358.129120   C1182.177246,358.914368 1195.666382,360.476471 1209.131714,362.039062   C1217.814209,363.046600 1226.503906,364.292358 1235.048584,366.101257   C1243.643311,367.920624 1252.019653,370.745880 1260.567505,372.818115   C1278.562622,377.180573 1295.528931,384.333008 1312.204712,392.107361   C1322.196289,396.765472 1331.870239,402.217834 1341.281006,407.976410   C1350.191284,413.428711 1358.775757,419.474854 1367.139771,425.744934   C1381.238525,436.314148 1394.455444,448.033630 1405.224121,461.982147   C1414.782593,474.363037 1423.745850,487.322693 1431.710938,500.773590   C1437.199585,510.042725 1441.528931,520.294495 1444.566284,530.638733   C1447.817749,541.712402 1449.100220,553.384705 1450.940308,564.844177   C1451.947754,571.117920 1452.973755,577.504761 1452.845947,583.817383   C1452.657349,593.134216 1451.907471,602.498779 1450.538574,611.715515   C1449.267456,620.274109 1447.568848,628.903320 1444.785034,637.067139   C1441.709839,646.085693 1437.465942,654.749268 1433.213257,663.310181   C1429.095581,671.599731 1424.873047,679.938049 1419.690430,687.571899   C1413.463501,696.743774 1406.729370,705.704956 1399.235352,713.856812   C1379.706177,735.099976 1356.769897,752.221558 1331.800903,766.536499   C1322.292603,771.987671 1312.393677,776.915894 1302.259766,781.076660   C1290.353271,785.965088 1278.139648,790.237549 1265.800293,793.906189   C1250.739868,798.383850 1235.526855,802.516479 1220.155151,805.720032   C1210.141602,807.807007 1199.747559,808.289185 1189.488770,808.926575   C1174.172974,809.878418 1158.813354,811.069214 1143.495972,810.801208   C1126.862549,810.510254 1110.185303,809.804565 1093.763794,806.119873   C1078.200195,802.627625 1062.209717,800.850891 1046.854614,796.674133   C1033.883423,793.145813 1021.467102,787.470886 1008.967041,782.350830   C999.076843,778.299744 989.069885,774.297974 979.768555,769.103577   C967.691040,762.358765 955.877563,754.987915 944.645874,746.918579   C928.865601,735.581421 914.582520,722.518555 901.887817,707.629578   C891.136414,695.019592 881.653320,681.642212 874.092163,666.993469   C865.153137,649.675171 858.259399,631.483887 856.130920,611.977539   C854.758057,599.395142 853.730164,586.635620 854.234680,574.022949   C854.880310,557.883362 858.091614,542.109253 863.503113,526.639343   C871.041687,505.088867 881.916321,485.473114 896.031311,467.859680   C904.958008,456.720459 915.334473,446.527252 926.158997,437.181824   C938.386658,426.624908 951.449707,416.899475 964.902832,407.944305   C974.377380,401.637421 984.938110,396.847839 995.326416,392.058899   C1006.606750,386.858704 1018.108459,382.057800 1029.777466,377.806854   C1039.376831,374.309937 1049.250854,371.392792 1059.204224,369.086517   C1071.436035,366.252319 1083.817383,363.910004 1096.243652,362.111420   C1108.995117,360.265686 1121.878784,359.332550 1135.186646,358.000000  M1114.409424,524.999878   C1110.017822,525.444702 1105.533569,525.469666 1101.252319,526.414307   C1089.201782,529.073303 1077.192383,531.946899 1065.245117,535.038452   C1048.778076,539.299377 1033.015747,545.603210 1018.456055,554.303101   C1007.836792,560.648499 997.998108,568.322998 987.951965,575.598999   C975.560547,584.573608 966.231873,596.535339 959.369141,609.819397   C952.819092,622.498108 950.167297,636.435059 950.747192,651.222351   C951.550659,671.708069 959.650269,688.814270 972.557068,703.705872   C980.366272,712.716003 989.913391,720.239075 998.853149,728.236267   C1001.055054,730.205933 1003.934631,731.417969 1006.502686,732.978333   C1005.602051,730.383179 1004.485901,728.372009 1003.058044,726.614075   C993.906921,715.348328 993.484253,701.889099 995.462402,688.826538   C996.894592,679.369263 1002.809448,671.119141 1009.538696,663.891846   C1017.501953,655.339050 1026.663940,648.339539 1037.010742,643.097046   C1046.415527,638.331726 1055.928589,633.432373 1065.925049,630.272705   C1077.675171,626.558716 1089.899170,624.015198 1102.097778,622.132019   C1117.233398,619.795532 1132.521851,617.849731 1147.804077,617.245483   C1160.923462,616.726685 1174.142822,618.114441 1187.287842,619.072266   C1196.708496,619.758667 1206.247681,620.355896 1215.435669,622.360413   C1231.855591,625.942810 1247.992310,630.436035 1263.450439,637.557495   C1280.172607,645.261292 1295.322510,654.717346 1306.675415,669.314209   C1315.999146,681.302185 1319.522583,695.027344 1315.950317,710.054688   C1314.841553,714.719421 1312.859131,719.176514 1310.972290,724.604553   C1315.100708,721.193481 1318.824707,718.546326 1322.039673,715.382141   C1332.947998,704.646240 1342.185547,692.777527 1348.326294,678.501343   C1352.029297,669.892395 1354.290527,660.983948 1354.801025,651.893372   C1355.533081,638.860779 1352.886230,626.401306 1347.259888,614.229797   C1338.074707,594.359558 1323.880615,579.200867 1306.343628,566.884033   C1297.953369,560.991394 1289.224487,555.397339 1280.071411,550.824036   C1270.104370,545.844055 1259.659790,541.621033 1249.072144,538.134827   C1237.077393,534.185303 1224.816406,530.806213 1212.442749,528.312500   C1200.044800,525.813965 1187.410156,523.938599 1174.796753,523.201904   C1160.017822,522.338806 1145.147217,522.835327 1130.322266,523.091736   C1125.313721,523.178345 1120.323486,524.331421 1114.409424,524.999878  M1117.949951,769.430237   C1120.133423,769.953308 1122.302124,770.851074 1124.502686,770.937012   C1136.410767,771.402222 1148.325195,771.843994 1160.240234,771.930969   C1166.986572,771.980225 1173.760498,771.572998 1180.481567,770.941284   C1189.547119,770.089294 1198.689087,769.397888 1207.592163,767.610779   C1224.223389,764.272278 1240.707275,760.305725 1256.242920,753.067993   C1271.927246,745.760986 1287.147217,737.816040 1297.784790,723.610657   C1308.830078,708.860718 1310.179565,693.982727 1299.827637,678.423950   C1288.816162,661.873718 1272.157593,652.556274 1254.471069,645.119446   C1241.037109,639.470581 1227.251831,634.583069 1212.597534,632.836914   C1196.766479,630.950500 1180.992798,628.309875 1165.110352,627.216309   C1153.774658,626.435852 1142.290527,627.476440 1130.891846,628.071472   C1124.056885,628.428284 1117.151978,628.971741 1110.467773,630.349731   C1098.220825,632.874451 1085.895020,635.395020 1074.013428,639.201355   C1063.124390,642.689697 1052.558960,647.421143 1042.253052,652.431946   C1031.477783,657.671143 1022.379272,665.212280 1014.638794,674.594788   C1009.220215,681.162842 1005.998474,688.351807 1005.072083,696.557678   C1003.940247,706.584961 1007.689087,715.199036 1013.590210,723.153992   C1022.554810,735.238770 1034.718506,743.491150 1047.877563,749.708679   C1060.090210,755.478882 1073.160156,759.689880 1086.193359,763.385620   C1096.236450,766.233521 1106.807861,767.218323 1117.949951,769.430237  M1224.913574,481.390961   C1218.066528,480.537720 1218.222900,480.544678 1217.936035,486.997467   C1217.786255,490.367981 1216.919922,493.701813 1216.472656,497.064941   C1215.560669,503.924622 1214.713257,510.792877 1213.848389,517.585754   C1220.774658,519.153931 1227.137085,520.594360 1233.421509,522.017212   C1236.231323,511.395538 1238.933228,501.042084 1241.725830,490.713135   C1242.533325,487.726257 1242.050537,485.711212 1238.663574,484.988495   C1234.282349,484.053589 1229.932739,482.971466 1224.913574,481.390961  M1265.048706,526.539185   C1267.969604,517.040955 1270.890503,507.542664 1273.926270,497.671295   C1266.152466,494.688812 1258.781250,491.860687 1251.300049,488.990448   C1251.015015,490.960968 1250.930664,492.440765 1250.575806,493.852539   C1248.195557,503.322357 1245.676758,512.758728 1243.453369,522.264709   C1243.208130,523.312988 1244.273926,525.533630 1245.197266,525.849365   C1251.312134,527.940613 1257.554199,529.660095 1263.699097,531.484009   C1264.136597,530.100098 1264.569214,528.731873 1265.048706,526.539185  M1133.875488,511.998047   C1139.819092,511.998047 1145.762573,511.998047 1152.346802,511.998047   C1152.346802,498.722717 1152.346802,485.922760 1152.346802,472.691193   C1145.295166,473.184052 1138.287354,473.673828 1131.000366,474.183105   C1131.000366,485.788025 1130.942261,497.089142 1131.085327,508.387756   C1131.100586,509.589813 1132.292847,510.776978 1133.875488,511.998047  M1277.000732,521.445618   C1275.952026,524.799011 1275.373169,528.408081 1273.725586,531.435486   C1271.994995,534.615356 1273.440674,536.059265 1275.747925,537.185425   C1281.292480,539.891541 1286.953125,542.359863 1292.292969,544.799072   C1296.473145,534.603455 1300.628662,524.467896 1304.970093,513.879150   C1297.668823,509.922241 1290.469604,506.020660 1282.800171,501.864227   C1280.784180,508.429169 1278.913086,514.522095 1277.000732,521.445618  M1246.969360,468.201447   C1248.205200,462.709717 1249.340088,457.192535 1250.716919,451.736389   C1251.475098,448.731659 1251.051880,446.857361 1247.687622,445.949127   C1243.836914,444.909546 1240.170898,443.171722 1236.309448,442.190308   C1232.369507,441.188965 1228.289795,440.737640 1224.676880,440.115356   C1223.250000,450.279053 1221.897461,459.913025 1220.534790,469.619385   C1229.067383,471.798645 1236.870361,473.791534 1244.452148,475.727966   C1245.238281,473.210693 1245.903931,471.079041 1246.969360,468.201447  M1093.954224,511.677002   C1093.636108,510.266632 1093.151489,508.870789 1093.026855,507.443512   C1092.202148,497.994598 1091.454834,488.538940 1090.641846,478.591248   C1084.863403,480.091553 1079.361084,482.074371 1073.697266,482.807129   C1069.513062,483.348511 1069.780884,485.626312 1070.078369,488.288025   C1070.599487,492.952850 1071.428955,497.582642 1071.979858,502.244812   C1072.718140,508.492004 1073.314209,514.755981 1073.995483,521.242737   C1079.536133,520.067688 1084.368652,518.663513 1089.296143,518.120300   C1093.091431,517.701965 1094.557373,516.237488 1093.954224,511.677002  M1121.000000,502.354797   C1121.000000,493.277679 1121.000000,484.200562 1121.000000,474.266388   C1114.672729,475.253235 1109.107544,476.452057 1103.483643,476.885406   C1099.541382,477.189178 1099.821167,479.515411 1100.055908,482.023010   C1100.631958,488.175629 1101.432495,494.307709 1101.972656,500.463013   C1102.425415,505.621918 1102.638184,510.801910 1102.929321,515.517883   C1109.641113,514.767273 1115.727173,514.086670 1122.132080,513.370361   C1121.760010,510.066284 1121.380005,506.690582 1121.000000,502.354797  M1232.963013,404.450409   C1231.987183,404.583862 1230.199341,404.586212 1230.153564,404.869781   C1228.816772,413.150635 1227.653931,421.459595 1226.539429,429.230988   C1236.163818,431.920624 1244.768066,434.325134 1253.940430,436.888428   C1255.593628,430.491791 1256.822998,423.701721 1259.182007,417.329956   C1260.724487,413.163879 1259.053711,411.937531 1255.874756,411.038635   C1248.483032,408.948456 1241.057739,406.976837 1232.963013,404.450409  M1282.077515,459.599548   C1274.953491,456.484436 1267.829590,453.369324 1260.896362,450.337616   C1258.383911,460.473694 1256.192627,469.314331 1253.927856,478.451355   C1260.781250,481.241302 1267.612549,484.128082 1274.557617,486.708221   C1275.376221,487.012299 1277.582642,485.869781 1277.854370,484.996185   C1280.220581,477.388977 1282.330688,469.700348 1284.362183,461.995087   C1284.494507,461.493042 1283.350464,460.654419 1282.077515,459.599548  M1310.084229,501.426270   C1312.414429,495.497498 1314.405640,489.401886 1317.209839,483.706482   C1318.736694,480.605682 1317.250732,479.351044 1315.354736,478.079315   C1311.098511,475.224548 1306.757446,472.482147 1302.328125,469.904907   C1299.543213,468.284515 1296.535889,467.046082 1293.716553,465.679016   C1291.023315,474.939301 1288.527466,483.520416 1286.216919,491.464722   C1293.908569,495.654816 1300.740356,499.421936 1307.648438,503.043854   C1308.140625,503.301880 1309.191162,502.494690 1310.084229,501.426270  M1319.716187,441.968384   C1314.763794,438.803101 1309.811523,435.637817 1304.092163,431.982361   C1301.604858,440.051117 1299.407349,447.179779 1297.078979,454.732880   C1305.458740,459.662476 1314.081299,464.734802 1323.069580,470.022278   C1326.021362,463.000244 1328.883789,456.191010 1331.661499,449.583130   C1327.900513,447.033630 1324.187500,444.516632 1319.716187,441.968384  M1130.000000,438.562317   C1130.385132,446.938385 1130.770264,455.314453 1131.171997,464.050690   C1138.584229,463.563324 1145.711548,463.094696 1152.686523,462.636078   C1152.686523,452.302612 1152.686523,442.229858 1152.686523,432.316956   C1144.962769,432.316956 1137.555786,432.316956 1130.000000,432.316956   C1130.000000,434.285278 1130.000000,435.937408 1130.000000,438.562317  M1120.000000,440.418396   C1120.000000,438.113007 1120.000000,435.807617 1120.000000,433.302521   C1112.216309,434.235107 1104.739258,435.130920 1096.923950,436.067291   C1097.769287,446.521912 1098.582886,456.585358 1099.387573,466.536163   C1106.499878,465.731628 1113.678345,464.919678 1121.484985,464.036621   C1120.963501,456.065857 1120.481812,448.704803 1120.000000,440.418396  M1204.490723,512.005554   C1206.322144,500.833466 1208.153564,489.661377 1209.975952,478.543884   C1203.359253,477.501221 1196.823853,476.471405 1190.129761,475.416565   C1189.385742,488.154083 1188.640503,500.913116 1187.926392,513.140625   C1192.637451,514.173523 1196.715454,515.079163 1200.799072,515.958862   C1203.496582,516.539917 1204.393066,515.262756 1204.490723,512.005554  M1178.047974,509.637390   C1178.362305,508.896576 1178.912231,508.169250 1178.955444,507.412903   C1179.562134,496.809479 1180.099976,486.202118 1180.701416,474.700287   C1174.702637,474.339264 1168.489502,473.965332 1162.220581,473.588043   C1162.220581,486.234497 1162.220581,498.947571 1162.220581,511.524841   C1166.638306,512.033936 1170.813477,512.684204 1175.009155,512.870911   C1175.970703,512.913757 1177.003296,511.360779 1178.047974,509.637390  M1280.420654,446.950287   C1282.799072,448.047729 1285.177368,449.145203 1288.242065,450.559357   C1290.578735,442.873352 1292.698242,435.901825 1295.224487,427.592651   C1286.843140,423.812927 1278.153076,419.893982 1269.457764,415.972687   C1267.316040,423.757263 1265.289062,430.975708 1263.400635,438.230255   C1263.220825,438.921204 1263.700562,440.362488 1264.223267,440.568146   C1269.402100,442.605682 1274.654663,444.456055 1280.420654,446.950287  M1213.407227,451.072968   C1214.258301,447.493652 1215.306152,443.942841 1215.830811,440.316284   C1215.972778,439.334839 1214.674561,437.302032 1213.795288,437.149750   C1207.008423,435.974213 1200.162231,435.142365 1192.000000,434.020630   C1192.000000,441.754761 1192.021118,449.133514 1191.982056,456.511902   C1191.974243,457.984741 1192.086914,459.603394 1191.541260,460.901428   C1189.818970,464.998749 1192.262085,465.667877 1195.361816,466.001617   C1200.343750,466.537994 1205.323975,467.090393 1211.725220,467.791626   C1212.144653,462.680023 1212.586670,457.293701 1213.407227,451.072968  M1019.393982,519.919128   C1021.030945,526.213928 1022.667908,532.508728 1024.377319,539.081970   C1028.837524,537.084534 1033.193848,535.443665 1037.190430,533.170593   C1038.532715,532.407227 1039.900024,529.876221 1039.655029,528.423096   C1037.834595,517.627197 1035.610840,506.899323 1033.450928,495.827515   C1027.945923,498.222046 1022.406006,500.563202 1016.963928,503.113037   C1016.461243,503.348572 1016.304138,504.960480 1016.458557,505.851471   C1017.228516,510.293427 1018.156311,514.707947 1019.393982,519.919128  M1089.999878,463.521790   C1089.140625,455.059845 1088.281372,446.597900 1087.400146,437.919739   C1081.082520,439.269745 1074.609741,440.509064 1068.244629,442.162292   C1067.246704,442.421539 1066.013306,444.622803 1066.116577,445.820038   C1066.893555,454.820160 1067.978394,463.793701 1068.960449,472.717072   C1075.015137,471.399292 1080.479736,469.768677 1086.056152,469.156616   C1089.573486,468.770599 1090.293213,467.343231 1089.999878,463.521790  M1120.000000,400.692780   C1119.924683,399.143402 1119.849365,397.594055 1119.791992,396.416565   C1113.803833,396.975800 1108.327881,397.622528 1102.833130,397.968170   C1094.849731,398.470428 1094.526001,398.737701 1094.988647,406.583954   C1095.066650,407.908325 1094.904419,409.249298 1095.016724,410.568695   C1095.453125,415.694580 1095.955688,420.814819 1096.417603,425.766602   C1103.260376,424.818268 1109.802124,423.711426 1116.389771,423.091644   C1119.247437,422.822754 1120.087524,421.760803 1120.035278,419.096893   C1119.921265,413.285034 1120.000000,407.469391 1120.000000,400.692780  M1171.511841,464.000000   C1174.947510,464.000000 1178.383057,464.000000 1181.898682,464.000000   C1182.471558,453.390167 1183.014282,443.335083 1183.563965,433.154724   C1176.440063,432.703339 1169.323242,432.252411 1162.299805,431.807373   C1162.299805,443.030853 1162.299805,453.422485 1162.299805,464.000000   C1165.240967,464.000000 1167.883911,464.000000 1171.511841,464.000000  M1045.000000,504.538208   C1046.461670,512.641846 1047.923340,520.745422 1049.404907,528.959656   C1054.535034,527.278198 1059.626953,525.609192 1064.738770,523.933655   C1063.328003,511.154968 1061.971191,498.865234 1060.593140,486.382812   C1055.886719,487.687531 1050.863770,488.730743 1046.161987,490.587494   C1044.671631,491.176086 1043.244873,493.915314 1043.200317,495.705383   C1043.135010,498.338745 1044.336060,501.003571 1045.000000,504.538208  M1195.000000,407.567200   C1195.000000,412.915405 1195.000000,418.263611 1195.000000,423.986847   C1201.732910,425.018066 1209.168945,426.156952 1217.294312,427.401428   C1218.483398,419.008209 1219.735352,410.170197 1220.980347,401.382446   C1217.923584,400.995392 1215.337524,400.717896 1212.768311,400.328857   C1210.060425,399.918823 1207.345825,399.506104 1204.674316,398.913361   C1195.228271,396.817627 1195.000000,396.962158 1195.000000,406.098267   C1195.000000,406.264679 1195.000000,406.431061 1195.000000,407.567200  M1153.000000,418.348328   C1153.000000,410.609833 1153.000000,402.871338 1153.000000,395.306152   C1144.625000,395.306152 1136.897095,395.306152 1129.672485,395.306152   C1129.672485,404.280884 1129.672485,412.941925 1129.672485,421.998383   C1137.118652,421.998383 1143.902100,422.086945 1150.676636,421.880310   C1151.476440,421.855927 1152.226685,420.212311 1153.000000,418.348328  M1335.568359,479.962067   C1341.645264,485.169434 1347.722168,490.376770 1353.760254,495.550842   C1357.096069,489.914459 1360.483765,484.190552 1363.936401,478.356995   C1355.717896,470.667969 1347.731201,463.195770 1339.487061,455.482697   C1336.428589,462.937317 1333.664062,469.675415 1330.864624,476.498535   C1332.389526,477.600739 1333.690918,478.541351 1335.568359,479.962067  M1302.374878,544.098816   C1301.375366,547.572754 1300.495850,550.857666 1304.832886,553.043823   C1308.105957,554.693787 1311.107544,556.882507 1314.889404,559.243042   C1320.085083,550.641968 1325.350830,541.924927 1330.677002,533.107727   C1324.648804,528.368408 1319.200928,524.085205 1313.342285,519.479126   C1309.739014,527.837952 1306.348755,535.702759 1302.374878,544.098816  M1318.074585,507.441376   C1318.241577,508.349976 1318.101562,509.559814 1318.637695,510.106384   C1319.869141,511.361816 1321.451294,512.266785 1322.853149,513.362549   C1327.382080,516.902649 1331.893799,520.464661 1336.257812,523.896729   C1339.605957,518.548279 1342.858521,513.798279 1345.574707,508.759216   C1346.465820,507.105774 1346.904785,503.705963 1345.948242,502.803986   C1339.926514,497.125977 1333.453247,491.926788 1326.753662,486.251160   C1323.849854,493.625244 1321.234863,500.265778 1318.074585,507.441376  M1163.000000,417.380737   C1163.000000,418.822723 1163.000000,420.264709 1163.000000,421.753723   C1170.569092,421.753723 1177.642456,421.753723 1184.874146,421.753723   C1185.332153,413.046906 1185.777100,404.586273 1186.222290,396.122253   C1178.006470,395.627655 1170.669189,395.185944 1163.000000,394.724243   C1163.000000,402.465515 1163.000000,409.432953 1163.000000,417.380737  M1036.038452,453.814301   C1037.572510,462.720490 1039.106689,471.626648 1040.774292,481.307251   C1046.927002,479.287567 1053.324341,477.187653 1059.313477,475.221680   C1058.343628,465.130402 1057.433350,455.658691 1056.477173,445.709137   C1049.007690,448.451050 1042.713623,450.761444 1036.038452,453.814301  M1063.567749,420.052185   C1063.784546,424.177979 1064.001343,428.303741 1064.221436,432.493958   C1071.748535,430.788269 1079.334839,429.069153 1087.022583,427.327057   C1086.155396,418.681030 1085.290771,410.061127 1084.448364,401.662445   C1078.435303,403.045837 1072.026001,404.606415 1065.573975,405.963379   C1062.903320,406.525085 1061.564087,407.710907 1061.983154,410.570831   C1062.408081,413.470123 1062.696411,416.389465 1063.567749,420.052185  M997.971497,536.840515   C999.138977,541.498779 1000.306458,546.157043 1001.644165,551.494446   C1006.065186,548.867920 1011.064453,546.924194 1014.415527,543.409241   C1015.783325,541.974487 1013.578552,537.135193 1013.004456,533.843933   C1012.976318,533.682434 1013.032471,533.504211 1012.994934,533.346741   C1011.047974,525.173828 1009.095032,517.002380 1006.962952,508.078186   C1001.859436,511.402496 997.669800,514.024414 993.626343,516.855042   C992.807007,517.428589 991.887878,518.988281 992.121582,519.756836   C993.792236,525.250183 995.749512,530.656433 997.971497,536.840515  M1038.597412,440.998901   C1044.007202,439.149445 1049.416992,437.299988 1055.242920,435.308289   C1054.495972,427.740692 1053.820435,420.101501 1052.874634,412.495911   C1052.776001,411.702118 1050.796509,410.317596 1050.165649,410.542450   C1044.019653,412.733154 1037.922729,415.089417 1031.953613,417.720551   C1030.968140,418.154938 1029.978271,420.262177 1030.166504,421.402069   C1031.345215,428.538330 1032.857544,435.619507 1034.275391,442.799133   C1035.476196,442.195374 1036.637573,441.611481 1038.597412,440.998901  M1007.613159,468.089600   C1009.564453,476.339325 1011.515808,484.589020 1013.531738,493.112091   C1018.721802,490.733337 1023.982178,488.497040 1029.035522,485.863403   C1030.084351,485.316803 1031.059937,483.199188 1030.887939,481.970917   C1029.719360,473.621643 1028.234253,465.316681 1026.848999,456.982574   C1024.006714,458.220367 1021.604431,459.059967 1019.405029,460.268707   C1015.226379,462.565155 1011.163879,465.072876 1007.613159,468.089600  M990.000244,545.510315   C987.882751,538.669434 985.765198,531.828491 983.280579,523.801575   C977.755005,528.309082 972.752502,532.389832 968.115845,536.172180   C972.800842,546.475586 977.241089,556.240845 981.708801,566.066467   C985.208374,563.486938 988.661865,561.123535 991.860535,558.454773   C992.654175,557.792603 993.125732,556.021484 992.874329,554.967896   C992.174011,552.032898 991.016418,549.206970 990.000244,545.510315  M972.955505,570.505859   C968.885681,561.526184 964.815857,552.546570 960.572327,543.183533   C955.884155,549.007812 951.944275,553.902405 948.034729,558.759338   C952.830505,567.815002 957.599060,576.819275 962.082581,585.285339   C965.504395,582.150940 968.912476,579.353394 971.867859,576.139526   C972.851562,575.069824 972.674561,572.932739 972.955505,570.505859  M957.541748,461.973541   C953.029175,466.315155 948.423828,470.567200 944.078430,475.070190   C943.155273,476.026855 942.441528,478.203430 942.892944,479.297333   C945.189636,484.863068 947.900940,490.257629 950.248108,495.246552   C956.589233,489.765900 962.990540,484.233246 969.750854,478.390320   C967.497375,471.617157 965.118103,464.466095 962.815247,457.544586   C961.185059,458.873749 959.611755,460.156494 957.541748,461.973541  M1021.976868,426.943573   C1021.466431,425.320984 1020.956055,423.698425 1020.431946,422.032257   C1014.504150,425.061859 1008.865234,428.410858 1002.850952,430.824341   C999.756897,432.066010 999.848938,433.417572 1000.423279,435.923584   C1001.857117,442.179932 1003.096191,448.480927 1004.641296,455.850952   C1011.197998,452.684662 1017.606506,449.679535 1023.883423,446.420929   C1024.514526,446.093262 1024.657837,444.186584 1024.500366,443.088348   C1023.767944,437.983185 1022.849915,432.904633 1021.976868,426.943573  M992.035339,445.247772   C991.606995,442.814911 991.178650,440.382050 990.655396,437.410217   C983.522888,442.326874 977.061096,446.781189 970.975891,450.975891   C973.371582,458.710083 975.511780,465.619659 977.683472,472.630707   C983.686768,468.708313 989.848145,464.682648 996.097961,460.599182   C994.851013,455.571411 993.661865,450.776855 992.035339,445.247772  M998.604309,500.931671   C1000.401367,500.025848 1002.198486,499.120026 1004.568970,497.925171   C1002.659729,489.315338 1000.735901,480.639557 998.665710,471.304199   C992.282166,475.662170 986.564026,479.565826 980.940613,483.404877   C983.522827,491.565338 985.985901,499.349243 988.489319,507.260498   C992.017151,505.111938 995.022583,503.281616 998.604309,500.931671  M973.065369,490.608978   C972.641907,490.421021 971.967285,489.959534 971.831238,490.084473   C966.119385,495.330414 960.455688,500.628784 954.963684,505.754730   C957.956543,512.817139 960.776672,519.472107 963.549377,526.015137   C969.208862,521.518799 974.546265,517.278259 979.987549,512.955261   C977.916382,505.802246 975.794495,498.473999 973.065369,490.608978  M1330.483276,572.989685   C1331.849976,574.293701 1333.216675,575.597778 1334.676392,576.990601   C1339.879395,569.057739 1344.883667,561.427856 1350.101562,553.472107   C1346.897339,549.665222 1343.673096,545.605225 1340.105713,541.873169   C1339.635864,541.381592 1336.748535,542.114624 1336.113892,543.049683   C1332.878296,547.816101 1329.969360,552.808350 1327.032349,557.772583   C1322.655884,565.169617 1322.686646,565.187805 1328.930054,571.419861   C1329.282227,571.771362 1329.632935,572.124207 1330.483276,572.989685  M911.532959,552.976013   C914.264648,547.239868 916.592346,541.258240 919.874451,535.856445   C921.956421,532.429871 921.657898,529.767822 919.971741,526.691589   C918.081482,523.243042 916.202454,519.788330 914.228638,516.171753   C913.806152,516.936401 913.256104,517.717957 912.915100,518.581909   C909.259155,527.845276 905.842773,537.210815 901.898804,546.348999   C900.397461,549.827698 901.455505,552.293335 903.377991,554.723022   C904.696228,556.389160 906.496033,557.674255 908.569031,559.578186   C909.508545,557.301086 910.273926,555.446045 911.532959,552.976013  M954.452087,597.039612   C954.747498,595.637085 955.740112,593.871643 955.228699,592.889038   C950.892639,584.557617 946.282532,576.368774 941.681885,568.004944   C938.872864,573.167297 936.056396,577.975891 933.660278,582.985535   C932.996582,584.373047 932.860352,586.984985 933.712769,587.967102   C939.073730,594.143372 944.782043,600.018188 950.182739,605.786743   C951.615601,602.776428 952.824951,600.235657 954.452087,597.039612  M1346.030396,591.371582   C1347.148926,592.880432 1348.267334,594.389282 1349.579590,596.159607   C1353.987671,591.672424 1358.278198,587.482422 1362.337524,583.079224   C1363.819336,581.471863 1366.200195,578.684387 1365.690674,577.588196   C1363.091309,571.996094 1359.680176,566.781311 1356.430786,561.225220   C1354.369385,564.503418 1353.052490,566.668945 1351.663330,568.787109   C1350.237183,570.961609 1348.826172,573.154663 1347.259399,575.226868   C1340.447876,584.235718 1340.397461,584.582642 1346.030396,591.371582  M920.034180,505.711456   C922.722046,511.123138 925.409851,516.534790 927.965576,521.680420   C932.228516,516.320923 935.897461,511.046814 940.275024,506.447144   C942.994507,503.589630 942.463684,501.320007 941.055725,498.448181   C939.048401,494.353912 937.162781,490.199982 934.703186,484.959259   C929.713074,491.984070 925.070312,498.519928 920.034180,505.711456  M1392.040894,520.439148   C1390.908081,518.019226 1389.775391,515.599243 1388.413940,512.690918   C1385.232910,517.417969 1382.215698,521.765808 1379.407715,526.244751   C1379.052124,526.811890 1379.610840,528.166077 1380.055908,528.987976   C1383.950562,536.181519 1387.915771,543.336792 1392.230713,551.176941   C1393.995361,549.126892 1395.681396,546.758972 1397.776978,544.837769   C1400.368896,542.461609 1400.666504,539.871887 1399.394409,536.881531   C1397.141724,531.585999 1394.831177,526.315002 1392.040894,520.439148  M1355.364868,604.107300   C1357.290039,609.679688 1359.215210,615.252014 1361.188110,620.962402   C1366.504272,617.491150 1371.482788,614.240295 1377.087891,610.580383   C1375.151367,603.315430 1373.151001,595.810669 1371.428101,589.346985   C1366.186768,594.168945 1361.061646,598.883972 1355.364868,604.107300  M943.515259,546.989075   C947.324890,542.837524 951.184387,538.729553 954.896545,534.492615   C955.534180,533.764709 956.088440,532.247253 955.759033,531.502380   C953.193298,525.699951 950.401733,519.997314 947.660461,514.222839   C945.059814,517.396667 942.575195,520.189697 940.369873,523.188110   C938.178528,526.167480 934.034119,529.971741 934.685242,532.323975   C936.181824,537.730042 940.073303,542.473206 943.515259,546.989075  M1360.026489,538.458008   C1361.480103,536.342590 1362.902954,534.205139 1364.395020,532.117126   C1366.429932,529.269287 1366.620850,526.517273 1364.235718,523.747620   C1361.114502,520.123596 1358.040161,516.459167 1354.653320,512.467712   C1350.738647,518.844177 1347.074219,524.813293 1343.531250,530.584412   C1347.529541,534.761108 1351.689331,539.106445 1356.053711,543.665405   C1357.028809,542.349731 1358.272705,540.671631 1360.026489,538.458008  M1367.442017,544.046143   C1366.456543,545.698547 1365.188110,547.252686 1364.570068,549.032654   C1364.015381,550.629395 1363.430786,552.913208 1364.149780,554.134399   C1367.311523,559.505493 1370.940918,564.601379 1374.556152,570.030396   C1376.792358,567.423218 1379.267212,565.010010 1381.116699,562.187073   C1382.073120,560.727295 1382.733765,558.204956 1382.129150,556.739990   C1379.360718,550.031555 1376.097534,543.527283 1372.815430,536.530640   C1370.897461,539.308167 1369.439209,541.419800 1367.442017,544.046143  M1376.968994,512.355164   C1377.981445,510.549164 1379.245728,508.833374 1379.934326,506.911377   C1380.598511,505.057281 1381.615723,502.419220 1380.831177,501.118500   C1377.851196,496.176697 1374.204346,491.636932 1370.731934,486.843719   C1367.810181,491.141479 1364.987549,495.013367 1362.510986,499.095276   C1361.695435,500.439575 1360.921021,502.960327 1361.588257,503.859619   C1365.056274,508.534790 1368.996094,512.859985 1373.014038,517.592590   C1374.429932,515.734192 1375.482910,514.352173 1376.968994,512.355164  M922.073547,574.614258   C922.686646,575.453796 923.299805,576.293274 923.983398,577.229309   C928.090759,570.743103 932.040344,564.550781 935.905640,558.306274   C936.177673,557.866699 936.016235,556.942505 935.736816,556.411926   C933.394043,551.962463 930.976562,547.552307 928.065430,542.177551   C924.836304,549.545105 921.963379,556.245422 918.965576,562.889343   C916.951782,567.352234 917.280945,571.146240 922.073547,574.614258  M925.290039,612.818787   C930.831360,617.127197 936.372681,621.435608 942.219543,625.981628   C943.595642,621.752502 944.622375,618.597046 945.681580,615.341858   C940.089539,609.180420 934.465271,602.983521 928.467651,596.375183   C927.214539,602.102417 926.123535,607.088989 925.290039,612.818787  M1403.090942,553.432190   C1401.740845,554.877136 1400.147339,556.167053 1399.103027,557.806824   C1397.837280,559.793945 1395.874146,562.292908 1396.228271,564.195312   C1398.057739,574.027100 1400.531738,583.738953 1402.760254,593.402954   C1407.142700,591.846497 1408.764160,588.521301 1408.034424,583.625305   C1406.534180,573.559326 1405.228760,563.464233 1403.090942,553.432190  M1390.952393,601.000671   C1391.301147,599.707642 1392.102173,598.349121 1391.926147,597.132080   C1390.665894,588.424072 1389.206421,579.744873 1387.754517,570.708557   C1384.541138,573.769653 1381.078247,576.007507 1379.334717,579.187805   C1378.494751,580.719666 1380.911133,584.022461 1381.813232,586.537537   C1381.975098,586.988464 1381.879028,587.526733 1382.009766,587.994629   C1383.497803,593.326294 1385.006958,598.652039 1386.654541,604.489685   C1388.058716,603.214294 1389.121094,602.249390 1390.952393,601.000671  M926.913513,643.390137   C931.191406,644.841980 935.469360,646.293884 939.674622,647.721130   C940.069824,643.585632 940.422668,639.893372 940.705383,636.934998   C935.010437,632.516479 929.687256,628.386353 924.364014,624.256287   C923.981628,624.409851 923.599304,624.563416 923.216919,624.716980   C924.195068,630.815613 925.173218,636.914246 926.913513,643.390137  M1378.000000,628.605347   C1378.000000,626.416565 1378.000000,624.227722 1378.000000,621.329956   C1374.571777,623.650574 1372.155273,625.498413 1369.544678,627.011475   C1363.273560,630.645935 1362.194336,634.111694 1365.362305,640.501282   C1366.559204,640.323242 1367.644775,640.139648 1368.736206,640.002869   C1377.999634,638.841858 1378.000000,638.844421 1378.000000,628.605347  M964.191284,710.828369   C955.788330,700.340454 948.735352,689.075378 944.607605,676.197876   C942.163086,677.019897 940.002075,677.746582 936.640015,678.877136   C943.345581,688.091125 949.274170,696.681030 955.726196,704.858032   C957.929382,707.650208 961.446838,709.405457 964.191284,710.828369  M897.000000,586.276001   C896.154602,590.416016 898.130066,592.959106 901.967834,594.713928   C902.546143,589.343445 902.546265,583.928101 903.813843,578.827759   C905.759399,570.999878 905.296448,568.828491 897.000000,563.362244   C897.000000,571.274292 897.000000,578.304077 897.000000,586.276001  M930.469238,654.000305   C928.184998,653.771118 927.450317,654.603271 928.344849,656.844299   C930.067261,661.159729 931.691223,665.514465 933.028137,668.998352   C935.531921,668.998352 937.398926,669.377380 938.986206,668.874084   C940.176880,668.496521 941.729980,667.079041 941.877319,665.960571   C942.640137,660.169739 940.218628,656.810608 934.501343,655.002808   C933.441589,654.667664 932.380737,654.335632 930.469238,654.000305  M1364.044556,663.210510   C1367.274414,664.630920 1370.962646,665.146179 1372.540649,661.606873   C1374.369873,657.504395 1374.867065,652.808044 1375.952148,648.329529   C1366.780640,647.554199 1364.228027,649.745544 1364.004883,658.310303   C1363.970337,659.638184 1364.002075,660.967834 1364.044556,663.210510  M912.000000,597.482361   C912.000000,599.461304 912.000000,601.440247 912.000000,603.529236   C913.248047,603.930542 914.390503,604.297913 915.703369,604.720093   C917.246887,599.297791 918.798340,593.847839 920.451477,588.040527   C918.755188,585.979736 916.739136,583.530640 914.107666,580.333984   C913.314758,586.433960 912.657410,591.491333 912.000000,597.482361  M1355.993896,686.512695   C1354.660522,689.221680 1353.399536,691.969543 1351.972290,694.628113   C1350.666260,697.060974 1349.180664,699.397339 1347.774170,701.776184   C1348.165894,701.991760 1348.557617,702.207336 1348.949219,702.422852   C1355.771973,692.931763 1363.760864,684.136902 1367.213135,672.201660   C1364.803345,672.201660 1363.024536,672.201660 1361.866699,672.201660   C1359.994751,677.043335 1358.270996,681.501465 1355.993896,686.512695  M1402.996094,609.507324   C1402.031494,616.180054 1401.066895,622.852783 1400.102173,629.525452   C1400.522949,629.606689 1400.943848,629.687866 1401.364624,629.769043   C1403.168579,621.075073 1404.972534,612.381104 1406.776611,603.687134   C1406.060059,603.507629 1405.343506,603.328125 1404.627075,603.148560   C1404.084595,604.978027 1403.542236,606.807434 1402.996094,609.507324  M1388.000000,618.904785   C1388.000000,623.422913 1388.000000,627.941101 1388.000000,632.459229   C1388.396240,632.490784 1388.792603,632.522278 1389.188843,632.553833   C1390.121216,625.829407 1391.053467,619.105042 1391.985840,612.380615   C1391.595703,612.215637 1391.205688,612.050659 1390.815552,611.885681   C1389.877075,613.927795 1388.938477,615.969849 1388.000000,618.904785  M901.479858,613.983765   C900.970154,610.923950 900.460510,607.864136 899.950806,604.804321   C899.208130,604.955505 898.465393,605.106689 897.722656,605.257935   C899.142578,612.036682 900.562439,618.815430 901.982361,625.594177   C902.355347,625.527283 902.728394,625.460449 903.101440,625.393616   C902.721375,621.843933 902.341248,618.294312 901.479858,613.983765  M1346.086426,703.449890   C1346.207275,703.845520 1346.328003,704.241211 1346.448853,704.636841   C1346.652222,704.533691 1347.036743,704.413696 1347.029175,704.330200   C1346.986206,703.868652 1346.847656,703.416077 1346.086426,703.449890  M965.944946,713.295532   C965.681763,712.889587 965.418579,712.483643 965.155457,712.077637   C965.208496,712.646057 965.261536,713.214478 965.944946,713.295532  z"/>
	<path xmlns="http://www.w3.org/2000/svg" fill="#FFFFFF" opacity="1.000000" stroke="none" d=" M1621.147705,663.984497   C1613.445312,660.640808 1605.837646,657.843079 1598.911987,653.859680   C1588.872681,648.085571 1578.873535,642.050110 1569.669434,635.057190   C1553.579346,622.832764 1542.061035,607.073730 1537.566895,587.013184   C1534.794678,574.638977 1534.624634,562.149414 1535.743652,549.394165   C1537.034912,534.675171 1541.763794,521.481995 1548.665283,508.721191   C1554.781372,497.412811 1562.788330,487.742615 1572.091675,478.896271   C1581.754639,469.708252 1592.478882,461.904663 1604.425537,456.497498   C1620.960938,449.013611 1638.115967,442.713257 1656.652466,442.014526   C1667.733765,441.596832 1678.884155,440.444153 1689.888794,441.229401   C1703.067627,442.169830 1716.367798,442.966919 1729.137573,447.465515   C1736.521851,450.066833 1744.621338,450.619446 1752.037598,453.152344   C1760.786865,456.140472 1769.183228,460.188446 1777.627808,464.008881   C1778.736572,464.510468 1779.896362,466.381836 1779.901489,467.623474   C1780.027344,497.921326 1779.999756,528.219788 1779.999756,558.999573   C1775.593628,558.999573 1771.471680,559.150818 1767.373901,558.903259   C1766.211304,558.833008 1764.745850,557.859436 1764.050781,556.860718   C1754.284912,542.827087 1745.191528,528.284668 1734.787354,514.747559   C1724.319946,501.127777 1712.448242,488.938354 1695.400024,482.831635   C1680.972046,477.663513 1666.594971,477.580750 1652.220825,481.209930   C1643.501709,483.411316 1635.504639,488.155151 1629.087524,494.608887   C1623.765381,499.961395 1621.397827,507.071442 1619.980225,514.476990   C1617.600098,526.912231 1621.302490,538.186951 1628.646362,547.539612   C1632.913208,552.973450 1639.946899,556.686890 1646.379761,559.874268   C1660.145996,566.695374 1674.212524,572.952087 1688.370605,578.931702   C1712.267090,589.024292 1737.140381,597.216919 1758.632080,612.124268   C1775.683960,623.952148 1788.477051,639.589905 1793.601196,660.303345   C1794.997681,665.948303 1795.294556,671.871826 1796.001709,677.679016   C1796.727783,683.641357 1797.983154,689.630554 1797.864868,695.585266   C1797.623291,707.745911 1794.632324,719.447449 1791.148682,731.117126   C1786.342529,747.217285 1776.388184,759.819580 1764.984131,771.350830   C1751.495117,784.990479 1735.082642,794.263367 1717.159302,801.016785   C1704.109375,805.933899 1690.844238,809.488220 1676.816406,810.056946   C1667.468872,810.435913 1658.070679,812.396606 1648.821899,811.771851   C1631.272217,810.586182 1613.738159,808.555847 1596.336670,805.947998   C1575.791260,802.869019 1556.606445,794.892639 1537.274048,787.652832   C1529.545532,784.758545 1529.000000,783.603943 1529.000000,775.056702   C1529.000000,749.223938 1528.996460,723.391235 1529.002441,697.558472   C1529.003906,691.457031 1529.561401,691.721069 1535.517944,690.820923   C1542.824341,689.716736 1545.722290,694.220459 1549.025269,699.019531   C1558.450317,712.713257 1567.079102,727.086548 1577.687744,739.802246   C1592.595093,757.670959 1611.055420,770.717224 1635.298950,772.987305   C1643.452148,773.750732 1651.713623,775.426514 1659.763672,774.751892   C1672.843750,773.655701 1686.072144,772.602356 1697.827148,765.125977   C1711.459351,756.455566 1717.329712,737.873230 1713.934204,723.564636   C1710.386597,708.615540 1700.121826,699.478577 1687.340454,693.240417   C1668.923340,684.251770 1649.965942,676.369202 1631.226685,668.042603   C1628.032104,666.623169 1624.775269,665.344238 1621.147705,663.984497  z"/>
	<path xmlns="http://www.w3.org/2000/svg" fill="#FFFFFF" opacity="1.000000" stroke="none" d=" M2187.996338,608.000000   C2118.201904,608.000000 2048.906494,608.000000 1978.128662,608.000000   C1979.100830,615.501404 1979.650513,622.755920 1981.054932,629.841003   C1982.958130,639.442444 1985.520142,648.913269 1987.793213,658.441589   C1990.402466,669.377991 1996.515869,678.569702 2003.565552,686.850586   C2016.911621,702.527405 2033.656738,713.648682 2053.631592,719.026367   C2062.951660,721.535461 2072.665771,722.894165 2082.293213,723.859680   C2091.978027,724.830994 2101.784912,725.088684 2111.523682,724.903320   C2126.998535,724.608887 2142.421143,722.956116 2157.209473,718.226440   C2171.823242,713.552490 2186.206055,708.132690 2200.585693,702.760071   C2206.838379,700.423889 2206.339600,700.340637 2207.134766,706.525635   C2208.739990,719.008240 2201.447021,727.792236 2195.337402,737.030396   C2191.320801,743.103638 2187.123535,749.288025 2181.924805,754.300171   C2171.181641,764.657471 2160.223633,774.721069 2147.769531,783.288208   C2135.357422,791.826355 2121.745605,797.446045 2108.018799,802.677795   C2098.677002,806.238220 2088.336426,807.476013 2078.320557,808.889587   C2067.317627,810.442383 2056.133545,812.134460 2045.103638,811.725403   C2029.993042,811.164978 2014.935181,808.833069 1999.888550,806.984131   C1981.979004,804.783264 1965.197876,798.523193 1949.653687,789.854004   C1938.302124,783.523132 1927.858154,775.323853 1917.762451,767.039856   C1903.286865,755.161621 1892.727783,739.936096 1884.717285,723.128662   C1877.156616,707.264893 1872.084229,690.697937 1869.698486,673.040222   C1867.483398,656.644592 1867.381470,640.277222 1868.317871,624.039429   C1869.478027,603.923462 1873.154297,583.908691 1881.457886,565.292786   C1886.801636,553.312256 1892.874634,541.589966 1899.517700,530.278687   C1904.243164,522.232666 1909.899902,514.560303 1916.127319,507.604065   C1931.587158,490.334900 1949.316650,475.847412 1969.952026,464.876862   C1983.367310,457.744720 1997.177368,452.032898 2011.930908,448.531555   C2024.033569,445.659302 2035.900269,441.778320 2048.609375,441.908539   C2059.187012,442.016876 2069.809082,440.644318 2080.345459,441.191833   C2091.090820,441.750153 2101.874512,443.011688 2112.032715,447.432159   C2117.876465,449.975098 2124.537354,450.822876 2130.090820,453.808899   C2139.392334,458.810272 2148.829590,464.037292 2156.898926,470.745697   C2170.420410,481.986298 2181.190186,495.817200 2188.464844,512.005554   C2196.204102,529.227600 2202.541260,546.891418 2204.022461,565.954712   C2204.910156,577.378723 2206.142090,588.777161 2206.932861,600.206909   C2207.271240,605.096497 2204.182373,607.987915 2199.490234,607.998352   C2195.825195,608.006531 2192.160156,608.000000 2187.996338,608.000000  M1989.558960,532.958435   C1986.770874,545.112122 1983.982788,557.265747 1981.134277,569.682800   C2026.197266,569.682800 2070.041504,569.682800 2113.652588,569.682800   C2113.412842,567.459778 2113.196045,565.547241 2113.001709,563.632446   C2112.588867,559.565979 2112.636475,555.390381 2111.688477,551.453796   C2109.740479,543.365540 2107.168213,535.429993 2105.020996,527.386780   C2100.070801,508.845367 2090.549072,493.903595 2073.132812,484.486908   C2062.535400,478.757050 2051.058105,477.149872 2039.970947,479.424347   C2026.472290,482.193451 2014.411133,489.090546 2005.895874,500.671600   C2003.232544,504.294037 2000.552246,508.006439 1998.603394,512.028381   C1995.412598,518.612915 1992.814331,525.484558 1989.558960,532.958435  z"/>
	<path xmlns="http://www.w3.org/2000/svg" fill="#FFFFFF" opacity="1.000000" stroke="none" d=" M2568.000000,449.000000   C2592.994629,449.000000 2617.490479,449.130341 2641.982910,448.889099   C2646.832031,448.841370 2648.108643,450.220459 2648.102295,455.033447   C2647.967041,557.010742 2648.000000,658.988281 2648.000000,760.965759   C2648.000000,762.459656 2648.000000,763.953491 2648.000000,765.384033   C2662.614014,772.354675 2676.974609,779.473816 2691.587402,786.030212   C2696.797363,788.367615 2698.936035,791.457458 2698.053955,797.003662   C2697.721191,799.095886 2698.000000,801.285278 2698.000000,803.714355   C2642.722412,803.714355 2587.657471,803.714355 2532.068848,803.714355   C2532.068848,787.617493 2532.068848,771.424805 2532.068848,753.543396   C2525.472412,759.351929 2520.158936,764.369080 2514.492920,768.950012   C2502.677002,778.502930 2490.826660,787.904236 2477.451660,795.444824   C2465.091797,802.413086 2452.240967,807.839783 2438.387939,809.581116   C2423.375488,811.468079 2408.216797,814.018982 2392.927246,810.160645   C2384.650146,808.071838 2375.754150,808.258545 2367.624023,805.805237   C2352.954590,801.378479 2339.467285,794.471619 2327.592529,784.324402   C2317.543701,775.737183 2310.711182,765.120850 2306.250244,753.144775   C2303.366699,745.403137 2301.286865,736.857605 2301.215332,728.651550   C2300.522705,649.419861 2300.333252,570.183716 2300.000244,490.948883   C2299.996826,490.123230 2300.000000,489.297577 2300.000000,488.150757   C2284.787109,481.354828 2269.643799,474.498505 2254.417236,467.832550   C2248.257324,465.135834 2247.000000,463.587372 2247.000000,456.797913   C2247.000000,454.339111 2247.000000,451.880280 2247.000000,449.000000   C2249.140869,449.000000 2250.925781,449.000000 2252.710693,449.000000   C2305.198975,449.000000 2357.687500,448.999908 2410.175781,449.000092   C2416.988525,449.000122 2416.998291,449.000824 2416.998535,455.842865   C2417.000732,533.492371 2416.906982,611.142090 2417.053955,688.791321   C2417.101318,713.791626 2431.763428,729.938599 2455.139893,735.908813   C2473.071289,740.488403 2490.629639,737.552368 2507.502930,730.742859   C2514.897217,727.758667 2521.926514,723.796753 2528.883545,719.858643   C2530.435303,718.980164 2531.869141,716.337524 2531.872803,714.504211   C2532.021729,640.520813 2532.021973,566.537048 2531.865723,492.553711   C2531.862061,490.809784 2530.279053,488.281097 2528.722656,487.452911   C2515.969482,480.667084 2503.140625,474.005554 2490.131348,467.727783   C2484.892090,465.199402 2481.643799,462.277985 2482.933838,455.977661   C2483.355225,453.919250 2483.000000,451.701843 2483.000000,449.000000   C2511.314941,449.000000 2539.407471,449.000000 2568.000000,449.000000  z"/>
	<path xmlns="http://www.w3.org/2000/svg" fill="#FFFFFF" opacity="1.000000" stroke="none" d=" M3250.000000,704.000000   C3250.000000,658.172668 3249.891846,612.845032 3250.049072,567.518250   C3250.119385,547.229797 3242.198975,531.501587 3224.143311,521.954468   C3218.194580,518.809021 3211.161133,517.297485 3204.434570,516.121826   C3187.076172,513.087952 3170.655029,517.908997 3154.889160,524.288391   C3147.892090,527.119629 3141.905762,532.526550 3135.646484,537.023132   C3134.607422,537.769592 3134.067139,539.846802 3134.065674,541.309814   C3133.990967,614.799927 3133.984375,688.290161 3134.112549,761.780212   C3134.115234,763.276123 3135.435303,765.324951 3136.749512,766.175842   C3147.555176,773.172424 3158.572266,779.843506 3169.341553,786.894104   C3171.035400,788.003052 3172.524170,790.411621 3172.841797,792.419495   C3173.405762,795.984924 3173.000000,799.703796 3173.000000,803.759094   C3171.453857,803.843689 3170.025146,803.989929 3168.596436,803.990234   C3106.937988,804.001526 3045.279541,803.960938 2983.621338,804.084900   C2979.362793,804.093445 2978.108398,803.054016 2977.796387,798.585510   C2977.319824,791.766479 2979.720459,787.899658 2985.652588,784.538330   C2996.564453,778.354736 3006.937744,771.220703 3018.000000,764.187500   C3018.000000,762.762268 3018.000000,760.794678 3018.000000,758.827148   C3018.000000,695.502197 3018.138428,632.176758 3017.891357,568.852783   C3017.837646,555.044800 3014.473145,541.654968 3004.576660,531.425110   C2997.131836,523.728943 2987.810791,518.411865 2976.780762,516.987915   C2974.856934,516.739502 2972.963623,516.252319 2971.039062,516.012878   C2956.063477,514.149292 2941.804932,517.162903 2927.960205,522.599670   C2922.149414,524.881592 2916.348389,527.268555 2910.797119,530.105042   C2906.456299,532.322998 2903.821289,535.463806 2903.840820,541.311462   C2904.083984,614.134277 2904.051025,686.958374 2903.866211,759.781555   C2903.855713,763.926636 2905.462646,766.039124 2908.539551,767.932983   C2918.937012,774.332336 2929.350342,780.709473 2939.615479,787.315979   C2940.855469,788.113953 2941.758301,790.216309 2941.893799,791.793396   C2942.220459,795.597290 2942.000000,799.448059 2942.000000,803.639893   C2873.203125,803.639893 2804.469482,803.639893 2735.367676,803.639893   C2735.367676,799.226990 2735.367676,794.484253 2735.367676,789.177917   C2750.355957,782.253418 2765.664551,774.892639 2781.241943,768.152832   C2786.178467,766.016907 2788.183350,763.787292 2788.164062,758.039001   C2787.915771,684.049683 2787.952881,610.059021 2788.130371,536.069275   C2788.139893,532.131592 2786.689697,530.066040 2783.730469,528.292603   C2769.116455,519.534912 2754.554199,510.689850 2739.885742,502.024689   C2734.997070,499.136902 2737.251465,494.619537 2737.283691,490.864899   C2737.294678,489.561829 2740.376465,487.783051 2742.359619,487.082001   C2753.209229,483.246765 2764.113281,479.553650 2775.075684,476.052826   C2788.038818,471.913055 2801.134521,468.185089 2814.075439,463.979370   C2833.865723,457.547638 2853.496094,450.614685 2873.358887,444.421906   C2879.758301,442.426697 2886.657959,441.941650 2893.374512,441.154144   C2894.459961,441.026855 2896.676270,442.794891 2896.854980,443.926086   C2898.124023,451.960785 2899.058838,460.050812 2899.983154,468.136566   C2901.113037,478.017456 2902.128906,487.911407 2903.277832,498.579590   C2904.829102,497.680634 2906.188232,497.209808 2907.125000,496.302795   C2922.968018,480.960236 2940.358643,467.568237 2959.336914,456.424835   C2970.850830,449.664368 2983.604248,445.442352 2996.764404,443.087982   C3011.395508,440.470490 3026.125977,440.480957 3040.989014,441.845795   C3057.454834,443.357788 3073.007568,447.677856 3087.608398,455.065857   C3105.067139,463.900116 3118.654053,476.668732 3125.355713,495.716614   C3126.559082,499.137390 3128.404541,502.332245 3130.049561,505.836060   C3129.830566,505.836060 3130.279541,505.976349 3130.457275,505.815948   C3141.820068,495.562469 3152.667236,484.662079 3164.630615,475.168701   C3179.217285,463.593872 3194.561279,453.532898 3212.879150,447.532196   C3231.495605,441.433624 3250.138184,440.426117 3269.047119,441.279083   C3279.230957,441.738495 3289.385254,444.661469 3299.374023,447.181885   C3312.438721,450.478516 3324.361572,456.354309 3334.861816,464.970978   C3345.120117,473.388947 3353.166748,483.212708 3358.512695,495.654938   C3363.899414,508.191528 3366.176514,520.925842 3366.080322,534.410583   C3366.008301,544.492126 3366.941650,554.578552 3366.955322,564.663391   C3367.042969,629.488037 3367.000000,694.312805 3367.000000,759.137573   C3367.000000,760.963745 3367.000000,762.789978 3367.000000,764.756531   C3383.395508,772.368530 3399.719238,779.861145 3415.917725,787.615845   C3417.362061,788.307495 3418.651855,790.619324 3418.863525,792.321533   C3419.311523,795.929016 3419.000000,799.630920 3419.000000,803.646973   C3349.521484,803.646973 3280.121582,803.646973 3210.010254,803.646973   C3210.010254,799.370117 3209.741455,794.760864 3210.181885,790.220337   C3210.306152,788.937866 3212.345947,787.596191 3213.777100,786.724365   C3224.625977,780.115417 3235.482178,773.512695 3246.477783,767.154053   C3249.307617,765.517700 3250.106201,763.649170 3250.079102,760.487915   C3249.918945,741.826416 3250.000000,723.162842 3250.000000,704.000000  z"/>
</svg>