<?xml version="1.0" encoding="utf-8"?>
<!-- Generator: Adobe Illustrator 25.2.1, SVG Export Plug-In . SVG Version: 6.00 Build 0)  -->
<svg version="1.1" id="Livello_1" xmlns="http://www.w3.org/2000/svg" xmlns:xlink="http://www.w3.org/1999/xlink" x="0px" y="0px"
	 viewBox="0 0 470 470" style="enable-background:new 0 0 470 470;" xml:space="preserve">
<style type="text/css">
	.st0{fill-rule:evenodd;clip-rule:evenodd;fill:#EEEEEE;}
	.st1{fill-rule:evenodd;clip-rule:evenodd;fill:#CCCCCC;}
</style>
<circle class="st0" cx="235" cy="235" r="235"/>
<path class="st1" d="M219.5,99.6c-58.3,10.4-90.2,75.6-62.9,128.4c34.2,65.9,131.9,62.6,160.3-5.5
	C344.4,156.5,289.4,87.1,219.5,99.6 M87.2,417.7l0.6-15.4c2.1-50.4,35.7-90.4,82.9-98.7c10.2-1.8,114.7-2.3,126.4-0.7
	c49,7.1,85.6,51.1,85.6,103v11.8C320.9,469,253.1,470,235,470C217,470,149.3,468.9,87.2,417.7z"/>
</svg>
