<svg xmlns="http://www.w3.org/2000/svg" width="470" height="470" viewBox="0 0 470 470" version="1.1">
<path d="M 219.500 99.605 C 161.204 110.027, 129.296 175.211, 156.649 228 C 190.820 293.948, 288.579 290.616, 316.920 222.537 C 344.421 156.476, 289.443 87.100, 219.500 99.605
M 171 303.686 C 123.792 312.016, 90.233 351.983, 88.123 402.388 L 87.500 417.275 91.500 420.722 C 166.379 485.232, 303.052 485.094, 379.901 420.430 L 383 417.822 383 406.042
C 383 354.170, 346.374 310.117, 297.356 303.031 C 285.698 301.345, 181.194 301.887, 171 303.686" stroke="none" fill="#ccc" fill-rule="evenodd"/>
<path d="M 213 1.625 C 47.950 21.823, -46.781 189.257, 22.974 337.490 C 56.731 409.225, 136.808 465.946, 209.299 469.469 C 213.809 469.688, 216.150 469.664, 214.500 469.417
C 183.229 464.720, 172.842 462.309, 153.500 455.256 C 133.941 448.124, 103.856 431.367, 91.500 420.722 L 87.500 417.275 88.123 402.388 C 90.253 351.520, 123.994 311.746, 171.926 303.602
C 182.989 301.722, 285.088 301.257, 297.356 303.031 C 346.374 310.117, 383 354.170, 383 406.042 L 383 417.822 379.901 420.430 C 351.295 444.500, 297.225 466.174, 258 469.293
C 253.675 469.637, 253.713 469.657, 259 469.822 C 298.332 471.049, 367.998 438.068, 402.601 401.840 C 554.140 243.182, 427.281 -24.597, 213 1.625 M 219.500 99.605
C 161.204 110.027, 129.296 175.211, 156.649 228 C 190.820 293.948, 288.579 290.616, 316.920 222.537 C 344.421 156.476, 289.443 87.100, 219.500 99.605" stroke="none" fill="#eeeeee" fill-rule="evenodd"/>
</svg>