<svg xmlns="http://www.w3.org/2000/svg" viewBox="1783.62 693.82 1350 1022">
	<path d="M2911.923828,826.104004   C2945.612793,849.526428 2976.757568,874.874878 3004.786865,903.925354   C3038.206787,938.562256 3066.272705,976.984802 3088.456299,1019.827271   C3106.463623,1054.604492 3119.331299,1091.081055 3126.900635,1129.364014   C3130.945557,1149.822266 3133.196289,1170.574097 3133.815430,1191.536987   C3134.908936,1228.564209 3131.172119,1264.967163 3122.365723,1300.919678   C3115.941895,1327.145386 3106.689453,1352.329834 3095.267822,1376.756470   C3075.830322,1418.326172 3050.191162,1455.851685 3019.868896,1490.096680   C2993.107910,1520.319580 2962.775146,1546.771118 2930.353027,1570.810547   C2899.581787,1593.625610 2867.023682,1613.619629 2832.861572,1630.853394   C2796.330078,1649.282593 2758.383301,1664.411621 2719.326904,1676.680054   C2672.656738,1691.339966 2625.123535,1701.962280 2576.563477,1708.229370   C2543.918457,1712.442627 2511.214111,1714.536255 2478.320068,1715.443726   C2372.544434,1718.361694 2269.767578,1702.449829 2170.084961,1667.157227   C2112.850098,1646.893677 2058.776611,1620.005859 2008.536499,1585.791016   C1973.839966,1562.161865 1941.394043,1535.675537 1912.300415,1505.348022   C1878.979980,1470.614380 1850.831055,1432.132690 1828.841187,1389.138184   C1808.084839,1348.555542 1794.252075,1305.906738 1787.699219,1260.824951   C1783.719238,1233.442871 1782.625854,1205.864014 1784.532227,1178.382568   C1788.125610,1126.579712 1801.258301,1077.047974 1824.008301,1030.281616   C1844.325195,988.516602 1870.352905,950.623474 1901.738525,916.297729   C1948.223755,865.458008 2002.452637,824.855408 2062.570801,791.566956   C2127.031006,755.874268 2195.585693,731.379517 2267.192139,715.021362   C2307.033936,705.919678 2347.394775,700.267761 2388.179199,697.084534   C2420.383545,694.570984 2452.610840,693.017029 2484.826172,694.253235   C2559.380127,697.113953 2632.882812,707.245117 2704.527832,728.920776   C2747.864990,742.032227 2790.088623,758.018799 2830.607666,778.237793   C2858.576904,792.194458 2885.470703,808.094910 2911.923828,826.104004  M2875.316406,1501.729614   C2904.192383,1473.450806 2928.321045,1441.751099 2945.876221,1404.200195   C2939.841553,1403.378906 2934.437012,1402.643311 2929.858887,1402.020142   C2925.527588,1412.983276 2922.115479,1423.018311 2917.641846,1432.555298   C2913.014160,1442.420410 2908.038330,1452.259521 2901.986572,1461.286743   C2893.170166,1474.438721 2883.255127,1486.854248 2872.631348,1500.224854   C2869.864746,1503.145874 2867.098145,1506.066895 2864.331543,1508.987915   C2864.783203,1509.467896 2865.234619,1509.947876 2865.686279,1510.427856   C2868.446533,1507.572021 2871.207031,1504.716187 2875.316406,1501.729614  M2052.764648,1515.115356   C2056.537842,1517.984741 2060.311279,1520.854126 2065.352051,1524.687500   C2060.757812,1519.817383 2057.310303,1516.163086 2053.172363,1511.336548   C2024.096069,1482.844604 2002.066162,1449.688965 1988.061157,1410.985474   C1981.196411,1412.737915 1975.284790,1414.247070 1968.892700,1415.878784   C1989.218506,1456.084229 2017.075562,1488.075684 2052.764648,1515.115356  M2133.555420,1542.673462   C2129.497314,1537.412842 2125.119629,1532.365967 2121.434326,1526.855957   C2101.402100,1496.908203 2095.443604,1464.888428 2107.749268,1430.312378   C2116.482910,1405.772827 2132.718262,1386.693481 2151.933838,1369.847656   C2173.640381,1350.817871 2198.579834,1336.960327 2224.800049,1325.341431   C2290.618896,1296.175171 2360.276855,1283.688232 2431.574951,1280.373413   C2482.739014,1277.994873 2533.832275,1280.700317 2584.478516,1289.823608   C2635.744385,1299.058594 2685.231201,1313.473022 2731.299316,1338.157959   C2756.939209,1351.896729 2780.241211,1368.798218 2799.212402,1391.289551   C2832.164062,1430.355347 2838.286865,1478.195679 2812.426270,1520.377197   C2811.327393,1522.169678 2810.607422,1524.194214 2809.447754,1526.673462   C2811.137695,1526.383301 2811.869873,1526.473755 2812.291748,1526.154419   C2846.618896,1500.165161 2875.766602,1469.579468 2895.267578,1430.774658   C2918.234619,1385.072754 2922.527100,1337.679810 2905.849365,1289.062378   C2893.426514,1252.849365 2871.557129,1222.788086 2844.223633,1196.206543   C2816.294922,1169.046631 2784.398438,1147.801636 2750.030518,1129.951416   C2703.802002,1105.941040 2654.797119,1090.000732 2603.936768,1079.211548   C2560.623291,1070.023315 2516.809326,1065.488892 2472.646729,1064.237793   C2456.387207,1063.777100 2440.082520,1064.885498 2423.798828,1065.297241   C2387.233887,1066.221558 2351.102539,1070.987915 2315.310547,1078.217773   C2256.729980,1090.050781 2200.683105,1109.104004 2148.515869,1138.641602   C2109.166260,1160.921753 2073.549072,1187.879883 2045.439697,1223.768555   C2015.676025,1261.769043 1997.955444,1303.937988 1999.487549,1353.305908   C2000.362793,1381.511963 2007.342163,1407.897217 2020.338989,1432.495850   C2046.186035,1481.415527 2085.299805,1517.627075 2133.020752,1546.952637   C2135.082764,1547.982788 2137.144775,1549.013062 2139.206787,1550.043213   C2139.450439,1549.621582 2139.693848,1549.199951 2139.937500,1548.778442   C2137.988281,1547.155518 2136.039307,1545.532593 2133.555420,1542.673462  M2234.750488,1586.252319   C2246.798584,1590.936035 2258.715088,1595.997559 2270.917480,1600.237305   C2321.141602,1617.687378 2373.199219,1625.829468 2426.020264,1629.099854   C2454.867432,1630.885620 2483.776611,1630.296387 2512.697021,1628.285034   C2545.896973,1625.976074 2578.711182,1621.470581 2611.060547,1613.934814   C2655.575928,1603.564331 2698.411865,1588.664551 2737.362305,1564.084595   C2756.899170,1551.755737 2774.747559,1537.418701 2788.388184,1518.561157   C2813.111328,1484.382935 2813.539795,1450.637329 2792.245361,1417.582275   C2780.755859,1399.747070 2765.389648,1385.652466 2748.057129,1373.581909   C2716.382568,1351.523071 2681.421875,1336.508301 2644.623047,1325.569580   C2583.412354,1307.374268 2520.799561,1300.370850 2457.009277,1301.096680   C2411.323486,1301.616577 2366.256104,1306.134888 2321.695068,1316.045654   C2279.994385,1325.320435 2239.854492,1338.902954 2202.668945,1360.230713   C2179.450439,1373.547363 2158.127686,1389.361938 2142.036133,1411.199585   C2119.697510,1441.514893 2115.198730,1473.473267 2134.084229,1507.197021   C2142.478271,1522.186035 2154.143311,1534.482788 2167.111328,1545.587646   C2186.984863,1562.605713 2209.766846,1574.872437 2234.750488,1586.252319  M2658.046387,999.026306   C2659.198486,993.695312 2660.350342,988.364380 2661.647949,982.359619   C2643.217285,977.745911 2625.394531,973.284424 2606.774902,968.623413   C2602.437500,998.263550 2598.299316,1026.542480 2594.102295,1055.224243   C2610.092285,1058.917358 2625.454346,1062.465454 2641.574219,1066.188599   C2647.011475,1044.134277 2652.370850,1022.395569 2658.046387,999.026306  M2671.931885,1075.223511   C2684.171143,1079.339966 2696.410400,1083.456421 2709.523682,1087.866821   C2717.430420,1061.709717 2725.327393,1035.584351 2733.501953,1008.541443   C2715.374268,1001.680847 2698.231201,995.192932 2680.225098,988.378235   C2673.345459,1016.663757 2666.791016,1043.612915 2660.122314,1071.032349   C2663.681396,1072.255981 2667.083740,1073.425537 2671.931885,1075.223511  M2419.282471,954.088135   C2415.069092,954.088135 2410.855713,954.088135 2406.154053,954.088135   C2406.721436,962.014343 2407.526367,968.592773 2407.599121,975.179321   C2407.790527,992.504456 2407.588135,1009.833679 2407.707520,1027.160156   C2407.746094,1032.720947 2408.299805,1038.278198 2408.572754,1043.049072   C2425.344482,1043.049072 2441.181641,1043.049072 2457.654297,1043.049072   C2457.654297,1012.555725 2457.654297,983.104675 2457.654297,954.088135   C2445.120361,954.088135 2433.174316,954.088135 2419.282471,954.088135  M2752.030029,1106.870728   C2759.017578,1110.533447 2766.004883,1114.196045 2773.615967,1118.185669   C2783.642334,1093.850708 2793.439209,1070.072266 2803.344238,1046.031738   C2785.912598,1035.286011 2769.146484,1025.630981 2750.861328,1017.212097   C2742.767090,1043.996338 2735.032959,1069.589111 2727.176758,1095.586304   C2735.639648,1099.404053 2743.162842,1102.797852 2752.030029,1106.870728  M2323.671631,1021.498474   C2322.151367,1003.121887 2320.631104,984.745239 2319.016357,965.224487   C2302.240723,968.964417 2285.957520,972.594543 2269.446045,976.275635   C2272.662842,1006.424072 2275.738281,1035.249146 2278.877197,1064.666626   C2294.632812,1061.174683 2310.048340,1057.758179 2326.015381,1054.219482   C2325.217041,1043.706177 2324.444580,1033.535400 2323.671631,1021.498474  M2647.915039,957.059875   C2653.931152,958.652039 2659.947266,960.244202 2666.960938,962.100342   C2671.795166,939.285767 2678.576172,917.351501 2682.570312,894.055847   C2661.315674,888.176697 2641.063477,882.574890 2620.183350,876.799377   C2616.587158,901.392395 2613.215332,924.451172 2609.822266,947.655579   C2622.568604,950.752441 2634.460938,953.641846 2647.915039,957.059875  M2388.569580,1033.866577   C2388.491699,1013.546326 2388.474609,993.225525 2388.296875,972.906189   C2388.248779,967.397339 2387.716553,961.892761 2387.372803,955.781982   C2370.274414,957.996338 2354.302734,960.064819 2337.876709,962.192139   C2340.260498,992.393921 2342.566406,1021.606873 2344.919434,1051.417480   C2360.459961,1049.436401 2375.035645,1047.578491 2389.895752,1045.684204   C2389.582520,1041.471680 2389.362793,1038.514404 2388.569580,1033.866577  M2665.623291,867.350769   C2672.853271,869.442932 2680.083496,871.535095 2688.127441,873.862793   C2692.721191,854.825134 2697.255859,836.031006 2701.901855,816.776733   C2678.791260,808.175720 2655.861084,801.445129 2631.834229,796.225952   C2629.275146,816.747498 2625.371094,836.316467 2623.712891,856.254700   C2637.901123,859.939941 2651.009277,863.344543 2665.623291,867.350769  M2750.245361,953.334961   C2752.989746,944.216919 2755.734375,935.098877 2758.575928,925.657715   C2739.518799,916.240479 2720.870850,908.085083 2701.066162,901.478882   C2695.653809,924.122803 2690.513672,945.627686 2685.283691,967.509033   C2703.668457,974.495056 2721.275146,981.185364 2739.669922,988.175110   C2743.064697,976.984741 2746.418701,965.929321 2750.245361,953.334961  M2783.256104,1009.705200   C2792.612305,1015.008606 2801.968506,1020.311951 2811.720703,1025.839966   C2819.469971,1007.081665 2826.913086,989.065186 2834.598633,970.461426   C2816.027832,956.856628 2796.753662,945.139465 2775.893799,934.529663   C2769.461182,955.861267 2763.379883,976.028687 2757.217529,996.463989   C2766.061523,1000.888367 2774.043213,1004.881287 2783.256104,1009.705200  M2860.418213,907.300354   C2861.218506,905.212097 2862.018799,903.123840 2863.030273,900.484558   C2842.462891,885.308044 2821.256592,871.971619 2798.586670,859.686829   C2793.042480,878.057800 2787.729492,895.662659 2782.567139,912.768372   C2803.316650,925.250916 2823.155273,937.185486 2843.266113,949.283691   C2848.893311,935.736877 2854.479736,922.288635 2860.418213,907.300354  M2411.739990,933.299072   C2426.966797,932.763733 2442.193359,932.228394 2457.956543,931.674255   C2461.255127,907.852905 2459.036133,884.092896 2459.661865,860.093262   C2441.375488,860.093262 2423.955078,860.093262 2406.459473,860.093262   C2406.459473,884.091492 2406.418457,907.269592 2406.606201,930.445984   C2406.613770,931.393494 2408.772217,932.323608 2411.739990,933.299072  M2387.293701,893.962463   C2386.779053,883.438293 2386.264404,872.914185 2385.736572,862.123779   C2366.981689,864.358521 2348.584717,865.558838 2330.619629,869.978149   C2332.543457,894.000427 2334.403564,917.225281 2336.287598,940.751221   C2354.112061,938.595520 2370.754150,936.582825 2387.635254,934.541138   C2387.635254,921.082214 2387.635254,908.449463 2387.293701,893.962463  M2548.021973,959.251953   C2546.173828,959.011108 2544.325684,958.770264 2541.664795,958.423584   C2539.542969,988.031555 2537.451172,1017.216064 2535.329590,1046.820068   C2549.331055,1048.714844 2561.975342,1050.426025 2575.319824,1052.231934   C2577.517578,1037.172363 2579.696045,1022.865356 2581.672363,1008.530579   C2583.666016,994.067566 2586.725830,979.700989 2587.257812,964.752319   C2573.932129,962.808533 2561.840332,961.044739 2548.021973,959.251953  M2477.657715,961.068970   C2477.100342,988.130127 2476.542969,1015.191284 2475.969971,1043.003418   C2490.012939,1043.805664 2502.723145,1044.531738 2516.337891,1045.309570   C2518.504883,1015.292053 2520.609619,986.135620 2522.779297,956.082458   C2507.166016,955.176636 2492.830566,954.344971 2477.658691,953.464783   C2477.658691,955.915833 2477.658691,957.499939 2477.657715,961.068970  M2749.576660,835.486328   C2739.975586,831.413452 2730.374268,827.340576 2720.072998,822.970642   C2715.299316,842.843445 2710.839600,861.408569 2706.391113,879.927734   C2726.220215,888.152161 2745.415527,896.113708 2765.116455,904.285034   C2770.605469,886.127014 2776.006104,868.261597 2781.481445,850.148621   C2770.819580,845.181885 2760.920166,840.570496 2749.576660,835.486328  M2199.959961,1060.995728   C2196.597168,1041.904419 2193.234375,1022.813171 2189.692139,1002.702881   C2175.026855,1010.009766 2160.358887,1014.313110 2147.463623,1022.778198   C2153.931641,1050.376465 2160.236328,1077.277100 2166.679688,1104.769409   C2179.961670,1099.048584 2192.040283,1093.846069 2204.826660,1088.338867   C2203.267090,1079.575439 2201.765625,1071.137939 2199.959961,1060.995728  M2264.331787,930.440186   C2267.088135,938.386230 2263.993652,947.492249 2268.351074,954.866394   C2285.208252,951.098877 2301.281494,947.506531 2317.465820,943.889282   C2315.560059,920.081421 2313.722412,897.125244 2311.765381,872.679504   C2293.966797,876.915405 2277.066650,880.937439 2259.785400,885.050171   C2261.378662,900.354431 2262.849854,914.484863 2264.331787,930.440186  M2598.897461,872.817871   C2582.325195,869.961121 2565.752930,867.104309 2548.377441,864.109009   C2546.624756,888.957275 2544.956543,912.609619 2543.251221,936.788940   C2559.894043,939.292480 2575.368164,941.620178 2591.075928,943.983032   C2592.536621,934.283752 2593.995361,925.518860 2595.151367,916.714355   C2597.028320,902.417542 2598.707520,888.094727 2598.897461,872.817871  M2386.342529,830.669067   C2385.988525,813.771240 2385.634766,796.873474 2385.252441,778.620422   C2364.597656,781.318726 2344.742920,783.912415 2324.123291,786.606079   C2325.769287,807.727234 2327.326904,827.714294 2328.908936,848.014771   C2348.171387,845.526306 2366.825684,843.116394 2385.885742,840.654114   C2386.048828,837.769775 2386.195557,835.178345 2386.342529,830.669067  M2214.954102,1036.055420   C2217.620361,1050.947876 2220.286377,1065.840332 2223.096191,1081.534912   C2235.839355,1077.454712 2247.947998,1073.577515 2260.335938,1069.611084   C2257.203369,1040.180908 2254.139160,1011.393738 2250.954590,981.474854   C2236.493896,986.207886 2222.483887,990.793396 2208.036133,995.522278   C2210.256592,1009.128479 2212.319824,1021.772034 2214.954102,1036.055420  M2528.348877,877.548706   C2528.735596,872.706360 2529.122314,867.864014 2529.546631,862.553406   C2512.324951,861.233032 2495.725830,859.215759 2478.310059,859.740601   C2478.310059,884.476562 2478.310059,908.254700 2478.310059,932.627136   C2493.638672,933.414551 2508.410400,934.173340 2524.137939,934.981262   C2525.555664,916.246338 2526.949707,897.826111 2528.348877,877.548706  M2897.429688,993.576172   C2902.087402,997.715759 2906.744873,1001.855347 2912.146729,1006.656250   C2920.414795,993.133972 2928.443604,980.003174 2936.392822,967.002380   C2919.130615,946.556702 2899.742188,929.622131 2878.988525,913.006409   C2872.167480,929.684814 2865.696777,945.506714 2859.406006,960.889160   C2872.278809,971.919861 2884.342773,982.257385 2897.429688,993.576172  M2604.158447,851.088989   C2607.239990,831.622131 2610.321533,812.155212 2613.585938,791.533142   C2593.781738,788.136719 2574.653076,784.856201 2554.369141,781.377502   C2552.809082,802.737549 2551.327637,823.024109 2549.861816,843.095093   C2568.138916,846.147522 2585.409180,849.031860 2604.158447,851.088989  M2461.663574,780.925171   C2462.237305,776.118896 2459.176514,775.478516 2455.506836,775.583618   C2450.206543,775.735413 2444.907227,775.916748 2439.607666,776.088501   C2428.103027,776.461365 2416.598389,776.835999 2405.460693,777.197998   C2405.460693,798.301697 2405.460693,818.348328 2405.460693,838.203979   C2424.313965,838.203979 2442.015625,838.203979 2460.336182,838.203979   C2460.336182,826.234680 2460.176270,815.342773 2460.392822,804.458313   C2460.536865,797.214355 2461.218506,789.981079 2461.663574,780.925171  M2837.380615,1069.558350   C2831.532471,1065.506836 2825.684326,1061.455444 2819.523926,1057.187622   C2809.446045,1081.637085 2799.878906,1104.847656 2790.327148,1128.021118   C2801.918457,1135.777588 2812.873047,1143.107910 2824.343018,1150.783325   C2836.903320,1130.206787 2849.110352,1110.209229 2861.816162,1089.394409   C2853.812988,1082.952637 2846.109863,1076.752441 2837.380615,1069.558350  M2866.950928,1066.097168   C2868.999756,1067.482422 2871.048340,1068.867676 2873.390137,1070.451050   C2882.685303,1055.122192 2891.583008,1040.448730 2900.576416,1025.617554   C2884.576904,1009.926575 2868.828369,995.101562 2850.437012,982.275024   C2842.746582,1000.962585 2835.468262,1018.648376 2828.193359,1036.325928   C2841.164551,1046.214722 2853.546387,1055.654297 2866.950928,1066.097168  M2242.680420,906.278748   C2242.220947,901.475769 2241.761719,896.672729 2241.213867,890.943665   C2223.795654,896.397949 2207.615967,901.715088 2192.401367,908.826172   C2196.412354,931.222412 2200.246338,952.631653 2204.146729,974.410828   C2219.374512,969.447571 2233.778076,964.752991 2248.524414,959.946594   C2246.739014,942.179749 2245.020264,925.076233 2242.680420,906.278748  M2127.471191,1126.526855   C2134.794678,1122.198486 2142.118164,1117.870117 2149.188965,1113.690918   C2142.694580,1086.025146 2136.376465,1059.110229 2129.817627,1031.169678   C2116.695801,1039.256470 2104.402832,1046.832520 2092.167725,1054.372925   C2100.456787,1081.100586 2108.415771,1106.764282 2116.533203,1132.938965   C2120.567871,1130.634888 2123.411377,1129.011108 2127.471191,1126.526855  M2479.773438,836.378540   C2480.843750,836.946350 2481.883789,837.937256 2482.989014,838.016418   C2493.885498,838.796204 2504.793945,839.409485 2515.696777,840.102783   C2520.792480,840.426758 2525.883789,840.822449 2531.055176,841.191284   C2532.545654,820.193665 2533.941650,800.526978 2535.431396,779.542786   C2517.205566,778.231750 2499.283691,776.942566 2479.952148,775.551941   C2479.853760,796.111267 2479.761719,815.297546 2479.773438,836.378540  M2291.006348,855.926147   C2297.334473,854.455322 2303.662598,852.984436 2310.266113,851.449646   C2308.594727,831.119080 2306.980957,811.485657 2305.244141,790.359497   C2286.680664,794.876587 2269.203857,799.129150 2251.085449,803.537903   C2253.324463,824.409363 2255.423828,843.979431 2257.573486,864.017883   C2268.934814,861.184998 2279.138428,858.640686 2291.006348,855.926147  M2231.174805,871.892700   C2233.528564,870.937805 2235.882324,869.982910 2238.666016,868.853516   C2236.690186,848.839355 2235.336914,829.313354 2232.055664,809.320740   C2213.127930,816.064514 2195.134033,821.276184 2178.354248,829.638611   C2181.832031,848.921021 2185.153564,867.334839 2188.609375,886.495483   C2202.835449,881.529053 2216.194336,876.865295 2231.174805,871.892700  M2163.473877,920.572693   C2151.701172,926.515137 2139.928467,932.457581 2127.859375,938.549561   C2132.790283,959.562073 2137.570068,979.930786 2142.444336,1000.702393   C2157.721680,993.817505 2171.805908,987.470337 2185.943115,981.099243   C2181.976318,958.973572 2178.151855,937.640686 2174.270264,915.989380   C2170.343506,917.653564 2167.597168,918.817444 2163.473877,920.572693  M2093.910645,1148.862549   C2095.880859,1147.209351 2097.850830,1145.556030 2099.797363,1143.922607   C2091.854492,1118.109131 2084.077881,1092.835205 2075.907959,1066.283081   C2062.873291,1076.562622 2050.158936,1085.301270 2039.732666,1096.725098   C2050.251221,1120.333130 2060.457764,1143.240356 2070.880859,1166.633911   C2078.586914,1160.665894 2085.664062,1155.185181 2093.910645,1148.862549  M2052.103271,1185.017212   C2053.426025,1183.583252 2054.748779,1182.149414 2056.096191,1180.688965   C2045.702637,1157.413452 2035.443237,1134.438354 2024.538452,1110.017944   C2013.252197,1123.335938 2003.287720,1135.094116 1993.283691,1146.899048   C2004.943848,1168.672729 2016.122314,1189.547119 2027.643433,1211.061157   C2035.869263,1202.208008 2043.429688,1194.070923 2052.103271,1185.017212  M2031.677246,921.624756   C2030.898193,920.254639 2030.119263,918.884521 2028.932129,916.796692   C2011.630859,931.842834 1994.203735,945.886780 1980.256836,963.378906   C1986.900879,978.135010 1993.229126,992.189697 1999.657593,1006.467102   C2015.373047,992.749817 2030.272095,979.745178 2045.351318,966.583191   C2040.920532,952.186401 2036.457275,937.684326 2031.677246,921.624756  M2116.374512,890.427795   C2118.541016,898.949768 2120.707764,907.471802 2123.035156,916.626892   C2139.180176,908.866760 2154.598145,901.455994 2170.518799,893.803650   C2167.090332,874.860840 2163.714600,856.208557 2160.116455,836.327393   C2142.403809,845.255859 2126.232422,853.407532 2110.038330,861.570618   C2112.299316,871.456787 2114.278320,880.109802 2116.374512,890.427795  M2866.112305,1119.058716   C2857.339600,1133.528442 2848.566895,1147.998169 2839.643066,1162.717285   C2849.481934,1172.120605 2859.065918,1181.280273 2869.146240,1190.914185   C2881.528320,1171.915405 2893.588379,1153.410400 2905.594238,1134.988647   C2895.820068,1123.654175 2887.145996,1112.495972 2875.789795,1103.208496   C2872.432617,1108.814575 2869.714111,1113.354248 2866.112305,1119.058716  M2046.276367,903.699585   C2051.127441,920.637756 2055.842773,937.622009 2062.206055,954.372864   C2077.375488,944.543213 2091.476807,935.405762 2105.484375,926.329102   C2101.252441,908.308594 2097.142090,890.805603 2092.603516,871.478943   C2076.482178,882.391968 2061.728027,892.379456 2046.276367,903.699585  M2121.709961,995.427429   C2118.033936,980.152588 2114.357910,964.877747 2110.385010,948.369080   C2095.637939,958.119568 2082.145752,967.040344 2068.298096,976.196106   C2074.228271,995.406128 2079.962891,1013.983154 2085.847168,1033.044312   C2099.190674,1025.020508 2111.625732,1017.543030 2124.572510,1009.757751   C2123.680420,1005.404175 2122.826172,1001.235596 2121.709961,995.427429  M2065.716553,1033.020630   C2061.371338,1018.856750 2057.026367,1004.692871 2052.271729,989.193848   C2036.619995,1001.942566 2022.012207,1014.036255 2009.188232,1028.417969   C2016.374756,1044.286621 2023.290405,1059.557495 2030.406128,1075.269897   C2043.912598,1064.513916 2056.548828,1054.450928 2069.236328,1044.347168   C2068.130371,1040.834473 2067.134033,1037.669434 2065.716553,1033.020630  M1925.754028,1108.864868   C1929.967651,1100.994995 1934.181274,1093.125122 1938.538330,1084.987305   C1932.088989,1073.008057 1925.662109,1061.070435 1918.575928,1047.907959   C1914.923462,1055.622803 1911.520630,1061.718384 1909.077881,1068.177246   C1902.066772,1086.715210 1895.369751,1105.373535 1888.738037,1124.051514   C1887.548950,1127.400879 1886.642090,1130.915405 1889.906616,1134.214111   C1895.665405,1140.032959 1901.056519,1146.215820 1906.732544,1152.388794   C1912.985596,1137.938599 1918.995728,1124.049927 1925.754028,1108.864868  M1976.263062,1173.459961   C1970.091675,1185.508911 1963.920288,1197.557983 1957.805054,1209.497314   C1972.088379,1225.298096 1985.674194,1240.327271 1999.637939,1255.774658   C2004.306396,1247.775391 2008.016113,1240.747192 2012.399292,1234.167847   C2014.905762,1230.405762 2015.001709,1227.474854 2012.775757,1223.620239   C2008.136108,1215.585083 2003.973389,1207.275391 1999.564575,1199.105591   C1993.629761,1188.108276 1987.647705,1177.136353 1981.322388,1165.483765   C1979.512451,1168.360474 1978.284058,1170.313110 1976.263062,1173.459961  M1974.101562,1035.205200   C1977.822266,1030.989868 1981.542847,1026.774536 1985.612915,1022.163452   C1979.258545,1008.007874 1972.956787,993.969604 1966.114502,978.726990   C1952.323975,995.346497 1940.236572,1011.368469 1930.114136,1028.765015   C1936.948853,1041.435181 1943.537842,1053.649658 1950.231445,1066.058105   C1958.307007,1055.765991 1965.878052,1046.116699 1974.101562,1035.205200  M2900.075928,1230.387573   C2900.922363,1231.375122 2901.768799,1232.362671 2902.945068,1233.735107   C2916.245605,1219.544312 2929.343262,1205.569946 2942.389648,1191.650146   C2934.891602,1177.591675 2927.779785,1164.346924 2917.476318,1151.969360   C2905.270020,1170.722046 2893.735840,1188.441895 2882.449219,1205.781738   C2888.582764,1214.146240 2894.070557,1221.629883 2900.075928,1230.387573  M3013.083984,1116.092285   C3015.348633,1113.700439 3017.613281,1111.308716 3019.998535,1108.789551   C3011.919922,1085.473145 3003.183838,1062.871582 2989.915771,1040.767334   C2981.759521,1053.410400 2974.470215,1064.709961 2967.947266,1074.821655   C2978.281006,1094.543823 2987.927979,1112.955322 2998.056152,1132.285522   C3002.755127,1127.233032 3007.440186,1122.195190 3013.083984,1116.092285  M1996.618896,1109.668335   C2002.920288,1102.871948 2009.221680,1096.075684 2015.477539,1089.328247   C2008.711670,1074.183960 2002.119507,1059.428223 1994.768555,1042.974243   C1983.122192,1058.556519 1972.285400,1073.055664 1961.547852,1087.422119   C1968.799316,1100.974121 1975.492798,1113.483276 1982.428345,1126.444580   C1987.236206,1120.835938 1991.521362,1115.837036 1996.618896,1109.668335  M2924.036133,1239.139893   C2920.390625,1243.350830 2916.744873,1247.561646 2913.286133,1251.556641   C2918.622803,1264.428345 2923.726562,1276.738037 2929.002930,1289.464355   C2941.871826,1280.948486 2953.991943,1272.927979 2965.748047,1265.148560   C2962.503662,1246.429565 2958.456055,1228.990112 2951.716309,1213.701904   C2942.640869,1221.996460 2933.829346,1230.049927 2924.036133,1239.139893  M2920.923096,1111.444824   C2928.340088,1100.108521 2935.757080,1088.772217 2943.244385,1077.328369   C2938.306152,1070.652588 2933.927002,1064.422974 2929.217773,1058.453613   C2924.604980,1052.606445 2919.656006,1047.024658 2914.095947,1040.426147   C2904.704834,1055.931396 2896.048340,1070.223877 2887.637207,1084.111328   C2898.010498,1094.938477 2907.604736,1104.952148 2917.449219,1115.227173   C2918.372559,1114.356323 2919.300293,1113.481567 2920.923096,1111.444824  M2938.015381,1143.119385   C2944.664795,1153.580444 2951.314453,1164.041504 2956.759033,1172.606934   C2964.198242,1166.146729 2971.222900,1160.022217 2978.277344,1153.932495   C2980.989502,1151.591064 2980.954590,1148.841309 2979.726807,1145.812988   C2972.775146,1128.666382 2964.894043,1111.994873 2954.429443,1095.293091   C2946.037354,1108.220093 2938.159668,1120.355103 2930.295654,1132.468872   C2932.986572,1136.053345 2935.168701,1138.959961 2938.015381,1143.119385  M2935.059570,1006.030396   C2932.010986,1011.119080 2928.962402,1016.207703 2925.973145,1021.197021   C2936.006836,1033.419067 2945.749023,1045.286133 2956.039062,1057.820557   C2964.100586,1045.324585 2971.592041,1033.711792 2979.149658,1021.996948   C2969.428711,1008.231567 2961.037109,994.570740 2949.584473,982.447754   C2944.518066,990.661987 2940.165771,997.718628 2935.059570,1006.030396  M1949.427979,1178.534546   C1956.234497,1166.835815 1963.041016,1155.136963 1969.825439,1143.476074   C1963.465942,1131.694946 1957.257080,1120.192627 1950.585205,1107.832764   C1938.424683,1128.486572 1930.156616,1149.627808 1923.698120,1171.668091   C1930.129761,1178.643311 1936.316162,1185.352417 1942.931152,1192.526367   C1945.122559,1187.655762 1946.889648,1183.728516 1949.427979,1178.534546  M3031.552490,1221.871704   C3035.610107,1220.004028 3035.993164,1216.505859 3035.696777,1212.658936   C3034.251709,1193.896851 3033.144531,1175.101074 3031.250244,1156.384766   C3030.432861,1148.307251 3028.003906,1140.392700 3025.977783,1130.854736   C3018.314697,1139.032227 3011.789307,1145.995361 3006.158447,1152.004150   C3011.385498,1178.076172 3016.398926,1203.083130 3021.492432,1228.488647   C3024.254639,1226.639648 3027.252441,1224.632812 3031.552490,1221.871704  M1945.595947,1252.426025   C1944.427246,1258.201050 1943.258545,1263.976074 1942.034790,1270.022827   C1955.692139,1280.485352 1969.008667,1290.686768 1982.873413,1301.308105   C1983.996460,1298.104370 1984.895752,1295.733643 1985.659912,1293.320068   C1987.443970,1287.683960 1991.400757,1281.539551 1990.304321,1276.511108   C1989.115967,1271.061279 1983.413574,1266.448486 1979.292114,1261.815308   C1970.101196,1251.483032 1960.668945,1241.365356 1950.702759,1230.468872   C1948.850952,1238.004395 1947.282593,1244.386353 1945.595947,1252.426025  M2984.033691,1248.311157   C2984.246826,1249.281982 2984.459961,1250.252930 2984.923096,1252.361572   C2990.099854,1248.950439 2994.905518,1245.783936 2999.310059,1242.881714   C3000.210449,1225.007446 2993.442139,1184.704224 2988.240967,1173.722778   C2982.939453,1178.441528 2977.417236,1183.587524 2971.637207,1188.424927   C2967.444092,1191.934204 2967.184082,1195.370850 2969.009033,1200.578613   C2974.352539,1215.825684 2978.843750,1231.371338 2984.033691,1248.311157  M1976.693481,1320.851196   C1964.962769,1311.931152 1953.624512,1302.457520 1939.567993,1293.078979   C1940.595947,1309.807495 1941.484497,1324.266235 1942.400757,1339.177734   C1954.642822,1342.872192 1966.098511,1346.329346 1977.666504,1349.820435   C1978.379150,1340.897461 1979.084961,1332.994751 1979.553345,1325.078125   C1979.615845,1324.023682 1978.474854,1322.897949 1976.693481,1320.851196  M1886.031006,1227.199219   C1887.868164,1228.117554 1889.705444,1229.035767 1891.048340,1229.706909   C1893.960815,1213.209106 1896.866211,1197.346558 1899.468994,1181.434448   C1899.913574,1178.717041 1900.078003,1175.024292 1898.625977,1173.097656   C1893.968506,1166.918213 1888.492432,1161.355835 1882.366943,1154.470459   C1878.335693,1177.940186 1876.986572,1199.570312 1877.893677,1220.977539   C1880.565674,1222.952148 1882.701538,1224.530396 1886.031006,1227.199219  M2955.921387,1294.796631   C2948.474854,1299.670532 2941.028320,1304.544556 2933.297852,1309.604370   C2934.513184,1318.051880 2935.659424,1326.017700 2936.865967,1334.404907   C2947.751221,1332.273926 2957.434814,1330.378174 2967.659180,1328.376587   C2967.659180,1314.617432 2967.659180,1301.535156 2967.659180,1288.418213   C2966.722412,1288.485107 2965.990479,1288.323730 2965.530029,1288.605469   C2962.706055,1290.332642 2959.943115,1292.159912 2955.921387,1294.796631  M1981.231812,1381.656006   C1980.530884,1377.410889 1979.829834,1373.165649 1978.999756,1368.138428   C1969.081421,1365.160034 1958.841309,1362.084839 1946.114380,1358.263062   C1951.406860,1373.682373 1955.872803,1386.693848 1960.466187,1400.076538   C1968.701416,1398.100098 1975.971191,1396.355347 1983.239868,1394.610718   C1982.650146,1390.373291 1982.154907,1386.815308 1981.231812,1381.656006  M2935.206787,1385.552002   C2940.989258,1386.338501 2946.771729,1387.124878 2952.813477,1387.946655   C2957.138184,1374.205200 2962.406494,1361.562378 2963.413818,1346.793091   C2953.722656,1348.614014 2945.100098,1350.234131 2936.891602,1351.776489   C2935.894287,1363.237427 2934.981934,1373.723999 2935.206787,1385.552002  M1919.514160,1252.645508   C1920.559570,1253.292725 1921.604980,1253.939819 1922.496338,1254.491699   C1926.340332,1241.526123 1930.166626,1229.025024 1933.653198,1216.429932   C1934.187988,1214.497803 1933.905151,1211.511963 1932.716309,1210.078613   C1928.436890,1204.919067 1923.607544,1200.215576 1917.359863,1193.624390   C1915.180298,1212.777100 1913.258057,1229.667847 1911.374390,1246.220703   C1914.275269,1248.563477 1916.304932,1250.202637 1919.514160,1252.645508  M3027.470459,1280.252563   C3029.530029,1268.483887 3031.589600,1256.715210 3033.761963,1244.301392   C3023.398682,1248.004883 3019.650391,1253.711914 3019.873779,1264.042236   C3020.141846,1276.446045 3017.741455,1288.914429 3016.390625,1301.343384   C3015.760742,1307.140381 3014.882324,1312.910400 3014.116699,1318.692627   C3020.780762,1307.110229 3024.049072,1294.541138 3027.470459,1280.252563  M1890.195923,1298.585449   C1892.377808,1305.134888 1894.559692,1311.684326 1896.741455,1318.233765   C1897.758423,1316.288940 1897.711548,1314.642822 1897.518311,1313.014038   C1895.613403,1296.966919 1892.863159,1280.962158 1892.091187,1264.861938   C1891.675293,1256.187744 1888.908813,1251.159180 1880.325317,1248.302734   C1881.901367,1265.128418 1885.691528,1281.097900 1890.195923,1298.585449  M2988.793213,1273.007935   C2988.793213,1289.708862 2988.793213,1306.409790 2988.793213,1323.110596   C2996.385986,1305.143921 2997.885010,1286.289307 2999.695801,1266.003296   C2995.558105,1268.581299 2992.790771,1270.305420 2988.793213,1273.007935  M1918.010742,1307.687256   C1918.285400,1308.590942 1918.560181,1309.494751 1918.834839,1310.398438   C1920.239014,1300.196533 1920.530273,1290.004883 1920.010010,1279.854736   C1919.896729,1277.646240 1916.877808,1275.586548 1915.197266,1273.458374   C1913.590454,1285.298706 1914.928101,1295.883789 1918.010742,1307.687256" fill="#fff"/>
</svg>